/* XPM */
static char *_155_1d08c6e4c1b255c2048748a6e98d796565d3c4ea45d3348bdbd983120d6f9455[] = {
/* columns rows colors chars-per-pixel */
"50 50 182 2 ",
"   c #7F1A2C",
".  c #171A4F",
"X  c #1A194F",
"o  c #1B1753",
"O  c #171A51",
"+  c #1A1952",
"@  c #2B1F56",
"#  c #251F59",
"$  c #221D57",
"%  c #252056",
"&  c #292157",
"*  c #25235A",
"=  c #2C255D",
"-  c #2D2A5F",
";  c #342356",
":  c #35265A",
">  c #342B5C",
",  c #3D2B5B",
"<  c #33305D",
"1  c #2C2561",
"2  c #2D2860",
"3  c #312460",
"4  c #382260",
"5  c #332862",
"6  c #3B2B63",
"7  c #362768",
"8  c #4D1B50",
"9  c #6E1B45",
"0  c #771349",
"q  c #791B4A",
"w  c #661951",
"e  c #6B1D59",
"r  c #44275B",
"t  c #4F2259",
"y  c #542C51",
"u  c #5D2B5F",
"i  c #552858",
"p  c #433157",
"a  c #58315E",
"s  c #5F3C5D",
"d  c #66344F",
"f  c #632558",
"g  c #723D59",
"h  c #7C1E72",
"j  c #741768",
"k  c #402461",
"l  c #482B61",
"z  c #462E67",
"x  c #5F2E64",
"c  c #423262",
"v  c #4F3268",
"b  c #583B67",
"n  c #57396D",
"m  c #5E3361",
"M  c #6A3F6A",
"N  c #7F3664",
"B  c #763368",
"V  c #703B73",
"C  c #663A77",
"Z  c #674249",
"A  c #544564",
"S  c #B1111D",
"D  c #B90609",
"F  c #AB261F",
"G  c #AD0826",
"H  c #AC0D29",
"J  c #B8012F",
"K  c #BD0B25",
"L  c #B11A21",
"P  c #A41F3C",
"I  c #B41633",
"U  c #BD2E20",
"Y  c #AF253C",
"T  c #B42036",
"R  c #BC2536",
"E  c #C80E0F",
"W  c #DC0E02",
"Q  c #CB1104",
"!  c #D51007",
"~  c #DD1B09",
"^  c #C8001F",
"/  c #C40A17",
"(  c #D10213",
")  c #D10F17",
"_  c #DF0E14",
"`  c #DB0019",
"'  c #D80B1C",
"]  c #C91917",
"[  c #D81213",
"{  c #E70400",
"}  c #ED0402",
"|  c #E50C03",
" . c #EB0C00",
".. c #EC020C",
"X. c #EB0D0C",
"o. c #E3020A",
"O. c #F50102",
"+. c #FD0301",
"@. c #F40C01",
"#. c #FE0A01",
"$. c #F4030B",
"%. c #FE020B",
"&. c #F60808",
"*. c #E61101",
"=. c #EC1101",
"-. c #E01A00",
";. c #EE1800",
":. c #EE100B",
">. c #FF1002",
",. c #FE1801",
"<. c #E40914",
"1. c #EE0B1F",
"2. c #E80719",
"3. c #F40612",
"4. c #FE0113",
"5. c #FE0913",
"6. c #F1031C",
"7. c #FD001C",
"8. c #F10F1A",
"9. c #FE0C1A",
"0. c #EF121B",
"q. c #FE1318",
"w. c #C8220C",
"e. c #D72010",
"r. c #EB2701",
"t. c #E6230D",
"y. c #C60F21",
"u. c #C70A2A",
"i. c #C10223",
"p. c #D90623",
"a. c #CA1121",
"s. c #D11826",
"d. c #D81729",
"f. c #C10C3F",
"g. c #D21531",
"h. c #EC0C2E",
"j. c #FE0023",
"k. c #FC0029",
"l. c #F40524",
"z. c #E81427",
"x. c #EE0E30",
"c. c #EC0338",
"v. c #D42125",
"b. c #C23A3E",
"n. c #EA2D3D",
"m. c #FB4E24",
"M. c #9A0F4A",
"N. c #8E1A59",
"B. c #981C52",
"V. c #812043",
"C. c #86334D",
"Z. c #963C48",
"A. c #8C2658",
"S. c #84215A",
"D. c #89355D",
"F. c #963958",
"G. c #A12C46",
"H. c #BD2845",
"J. c #A1354F",
"K. c #AA3641",
"L. c #A53F54",
"P. c #9E306F",
"I. c #953370",
"U. c #A62D68",
"Y. c #B52E69",
"T. c #A43872",
"R. c #CB0D53",
"E. c #D10F58",
"W. c #E20344",
"Q. c #D43E55",
"!. c #E03047",
"~. c #F93949",
"^. c #824265",
"/. c #A44362",
"(. c #CD435C",
"). c #E74D43",
"_. c #6479B6",
"`. c #823C94",
"'. c #914681",
"]. c #8E429A",
"[. c #9365A3",
"{. c #849AD6",
/* pixels */
"+ + + + + + + + + + + + + + + + + + O O o + + + + + O $ + + X + + o + + + + X + + + + + + + + + + + ",
"+ + + + + + + + + + + + + + + + + + + o o + + + o + + + X + + + + + + + + + o + + + + + + + + + + + ",
"+ + + + + + + + + + o + + + o + + X + + + + + + + + + + + O + X + + + + + O + + + + + + + + + + + + ",
"+ + + + + + + + + + O + + + + + + + X $ + + + + + + + O + + + + o O + + + o + + + + + + + + + + + + ",
"+ + + + + + + + + + + + + + + + + o + X c D.H.g.p.` ] U b./.O o + + + + O o + O + + + + + + + + + + ",
"+ + + + + + + + + + + + + + + + + o + + ; Y a.` 2.8.e.] ] R + + + O + o + o + + + + + + + + + + + + ",
"+ + + + + + + + + + + + + + o + + a 9.#.@.@.O.#.O.%.#.+.O.O.4.c.B * + o o + + + + + + + + + + + + + ",
"+ + + + + + + + + + + + + + o o o i O.#.,.#.+.+.%.%.+.+.#.#.4.k.Y 1 + O + + + + + + + + + + + + + + ",
"+ + + + + + + + + + o + + + + A +.#.! F Z M `.].^.D.L [ %.+.{ | &.&.t + + + + + + + + + + + + + + + ",
"+ + + + + + + + o X O + + + + y +.%.~ Z.c 2 2 7 z b L.v.+.O.X.:.&.O.t X + + + O + + + + + + + + + + ",
"+ + + + + + + + + + + + + + !.( f.k + + + + + + + + + + f z.#.#.#.+.4.E.+ + + + + + + + + + + + + + ",
"+ + + + + + + + o + o o + + z.( U.z + + + + + + + + o + V n.#.#.#.O.%.W.o + + o + + + + + + + + + + ",
"+ + + + + + + + O + + + + * 0 A.+ o o + o O + + + + + + + + S.<.} #.+.O.c X + o + + + + + + + + + + ",
"+ + + + + + + + o + + X + * q T.+ + + X + + + o + + O + + + I.' @.O.#.O., + + O + + X + + + + + + + ",
"+ + + + + + + + O $ O + n r + + + + O + + + + + o + + + + O + j j.+.@.| y o + + + + + + + + + + + + ",
"+ + X + + + + + O o X + n r + + + + + + O + + + + + + + + O + h j.+.@.=.y o X o + + + + + + + + + + ",
"+ + + o + + X + + + + + + + + + + + + + + + + + + + o + + + + 3 6. .{ =.x o + + + + + + + + + + + + ",
"+ + + + + + + + + + + + + + + + + + + + + + + + + + O + + o + = 6.@. . .x X O + + + + + + + + + + + ",
"+ + + + + + + + + + + + + + + + + + + + + + + + + + + o o + + , O.%.O.$.X + + + + + + + + + + + + + ",
"+ + + + + + + + + + + + X + + + + + + + + + + + O + o X + + + 4 %.%.O.q.o + o + + + + + + + + + + + ",
"+ + + + + + + + + + + + + + + + + + + + + + + + + + + + o O + e %.%.^ l + + + + + + + + + + + + + + ",
"+ + + + + + + + + + + + + + + + + + + + + + + + + + + + + + + w %.%.I v + + + + + + + + + + + + + + ",
"+ + + + + + + + + + + + + + + + + + + + + + + + + + + + + + g K 7.j.$ + + + + + + + + + + + + + + + ",
"+ + + + + + o + + + + + + + + + + + + + + + + + + o + + + + d p.4.7.. + + + + + + + + + + + + + + + ",
"+ + X + + + + + + + + + + + + + + + + + + + + + + + + + + c +.#.S > + + + + + + + + + + + + + + + + ",
"+ + o + + + + + + + + + + + + + + + + + + + + + + + + + + > #.O.G.> + + O + + + + + + + + + + + + + ",
"+ + + + + + + + + + + + + + + + + + + + + X + + + + O + ).Q d.M.+ + X + + O + + + + + + + + + + + + ",
"+ + + + + + + + + + + + + + + + + + + + + + + + + + + + t.*.G Y.. + o + O o + O + + + + + + + + + + ",
"X + + + + + + + + + + + + + + + + + + + + + + + + + + x %.%.o + + X o O + o + X + + + + + + + + + + ",
"+ + + + + + + + + + + X + + + + + + + + + + + + + o + 8 +.5.+ + O o + + o + + o + + + + + + + + + + ",
"+ + + + + + + + + + + + + + + + + + + + + + + + o - #.#.@ + + + o o + + + + + + + + + + + + + + + + ",
"+ + + + o + + + + + + + + + + + + + + + + + + + + % %.+.5 + + o + + . o o o + X + + + + + + + + + + ",
"+ + + + + + + + + + + + + + + + O + + X + X o + n./ R 5 + + + + + O + + + + + + + + + + + + + + + + ",
"+ + + + + + + + + + + + + + + + X + + + + + O + ] d.F.5 + + + + + + + O + + + + + + + + + + + + + + ",
"+ + + + + + X + + + + + + + + + + o O o + + m.D q $ O + + + + + + + + + + + + + + + + + + + + + + + ",
"+ + + + + + + + + + + o + + + + + + + + + $ r.-.D.* + + + + + + + + + + + + + + + + + + + + + + + + ",
"+ + + + + + + + + + + + + + + + + o O + (.0.  - O o + + + + + + + + + + + + + + + + + + + + + + + + ",
"O o + + + + + + + + + + + + + + + o o + 8.o.J.< + + + + O + + + + o + + O + o o + + + + + + + + + + ",
"+ + + + + + o + + + + + + + + X o X T.B.9 p + + + + + + + + + + + o + + + = - = + + + + + + + + + + ",
"+ + + + + + + + + + + + + o + + X o N.J (.A o + + + + + + + o O + + O + + = & = + + + + + + + + + + ",
"+ + + + + + + + + + + O + + + + l q H ~.{.$ % * + + X + + o o o o 2 C U.x.( * + + + + + + + + + + + ",
"+ + + + + + + + + O o + o + + + ; I v.~._._.[.% + + + + + + X o + * U.R.l.x.* + + + + + + + + + + + ",
"+ + + + + + + + o + + + + + ^.) #.#.O.O.O.+.&.{ #.#.=.=.7.7.+.#.#.#.O.O.! i + + + + + + + + + + + + ",
"+ + + + + + + + + + + + + o K._ O.#.5.5.+.+.@.@.+.+.|  .7.4.O.+.O.#.#.@.E a + + + + + + + + + + + + ",
"+ + + + + + + + + + + + B u.} #.s.y.4.+.*.| k.7.+.+.3.$.%.%.4.4...&...3.; o + + + + + + + X + + + + ",
"+ + + + + + + + + + + + f i.#.#.Q.T $.+.*.;.j.7.+.+...3.+.+.4.%.2.<.$.3.: + + + + + + + + + + + + + ",
"+ + + + + + + + + + + + o + + + + + + + + + + + + + o + O O + + + + + + + + o + + + + + + + + + + + ",
"+ + + + + + + + + O + + + + + + + + + + + + + + + + + + o + + + + + + + + O + + + + + + + + + + + + ",
"+ + + + + + + + + + + + + + + + + + + + + + + + + + + + + + + + + + + + + + + + + + + + + + + + + + ",
"+ + + + + + + + + + + + + + + + + + + + + + + + + + + + + + + + + + + + + + + + + + + + + + + + + + "
};
