/* XPM */
static char *_0022_c4f39b0e5857b5f1377dee550c356541126011efdd96531db1fcc0c24b29454a[] = {
/* columns rows colors chars-per-pixel */
"50 50 174 2 ",
"   c #731F37",
".  c #161B4E",
"X  c #19194F",
"o  c #1B1752",
"O  c #171A52",
"+  c #1A1952",
"@  c #201D56",
"#  c #311F51",
"$  c #361E5A",
"%  c #38284C",
"&  c #202157",
"*  c #232159",
"=  c #2D245C",
"-  c #2E2254",
";  c #3F2A51",
":  c #31245B",
">  c #3C265A",
",  c #332A59",
"<  c #2A2160",
"1  c #322561",
"2  c #3A2D62",
"3  c #382A68",
"4  c #3F3365",
"5  c #451F5A",
"6  c #7F1B4F",
"7  c #492C4A",
"8  c #482357",
"9  c #43255D",
"0  c #412A5E",
"q  c #4C295E",
"w  c #502251",
"e  c #51265C",
"r  c #502A5B",
"t  c #5D2252",
"y  c #6F295F",
"u  c #7D2156",
"i  c #571761",
"p  c #5D1A67",
"a  c #4B2B62",
"s  c #42296B",
"d  c #4F2B68",
"f  c #522B63",
"g  c #453B60",
"h  c #4C3A60",
"j  c #4C3269",
"k  c #443567",
"l  c #54336B",
"z  c #5A3769",
"x  c #65226F",
"c  c #742F65",
"v  c #792F6E",
"b  c #77396C",
"n  c #74317E",
"m  c #683669",
"M  c #775C53",
"N  c #4E4864",
"B  c #544367",
"V  c #5F4465",
"C  c #584F6A",
"Z  c #5A4769",
"A  c #BD1805",
"S  c #BC1606",
"D  c #BC0311",
"F  c #A91F1D",
"G  c #A42F0C",
"H  c #BF2213",
"J  c #931739",
"K  c #9A1F3C",
"L  c #BF172E",
"P  c #BC1C24",
"I  c #B70F32",
"U  c #B31631",
"Y  c #BB1B35",
"T  c #AD2B2D",
"R  c #B53325",
"E  c #CA0701",
"W  c #CF0408",
"Q  c #CD0D02",
"!  c #D30907",
"~  c #D10909",
"^  c #DE0E0A",
"/  c #D0130D",
"(  c #DD110B",
")  c #D21C06",
"_  c #CF0610",
"`  c #CC0917",
"'  c #CC071C",
"]  c #C5051E",
"[  c #DB0318",
"{  c #DB0C1D",
"}  c #DA0915",
"|  c #C7131E",
" . c #C41417",
".. c #DE101A",
"X. c #D61714",
"o. c #E40001",
"O. c #E90000",
"+. c #EF0D00",
"@. c #EA030A",
"#. c #E40A0B",
"$. c #F30100",
"%. c #FC0201",
"&. c #F30B00",
"*. c #FE0A01",
"=. c #F60108",
"-. c #FF010B",
";. c #FF0A0C",
":. c #E51606",
">. c #F41101",
",. c #FD1202",
"<. c #FF1508",
"1. c #E60115",
"2. c #EF0013",
"3. c #E1061C",
"4. c #F40215",
"5. c #FB0413",
"6. c #FE0F15",
"7. c #F6011A",
"8. c #FA021D",
"9. c #E61A1D",
"0. c #CE0E25",
"q. c #D30E26",
"w. c #D00429",
"e. c #CB1524",
"r. c #D51626",
"t. c #D1112A",
"y. c #D31A28",
"u. c #CB0834",
"i. c #C50D3F",
"p. c #CB0536",
"a. c #DE1831",
"s. c #E00025",
"d. c #ED0127",
"f. c #EE012F",
"g. c #F20122",
"h. c #FB0022",
"j. c #F20029",
"k. c #FB0D28",
"l. c #FF1E24",
"z. c #F9102B",
"x. c #E70D3F",
"c. c #E6073C",
"v. c #FE0230",
"b. c #E03023",
"n. c #ED2238",
"m. c #E9343B",
"M. c #9D4B3F",
"N. c #CA4A3D",
"B. c #95144A",
"V. c #86145C",
"C. c #B91841",
"Z. c #BC1243",
"A. c #B91A50",
"S. c #8F2B4F",
"D. c #923548",
"F. c #8C3754",
"G. c #B92243",
"H. c #AD384B",
"J. c #B32358",
"K. c #A73B5F",
"L. c #8D3167",
"P. c #9F2F7B",
"I. c #833A71",
"U. c #B53669",
"Y. c #CD0E41",
"T. c #D9054F",
"R. c #CA1542",
"E. c #DF1642",
"W. c #D41654",
"Q. c #E51340",
"!. c #D02A42",
"~. c #D9294D",
"^. c #DC324C",
"/. c #C9285C",
/* pixels */
"+ + + + + + + + + + + + + + + + + + + + X + + + + O + + + + + + + + + + + + o + + + + + + + + + + + ",
"+ + + + + + + + + + + + + + + + + X + + o + + + + + + + + + + + + + + + + + o + + + + + + + + + + + ",
"+ + + + + + + + + + + + + + + + o + + + + + X X + + + O + + + + + + + + + O O O + + + + + + + + + + ",
"+ + + + + + + + + + + + + + + + o + + + + + + + + + + + + + + + + + + + + & + + + + + + + + + + + + ",
"+ + o + + + + + + + + + + + + + + + + X z L.S.C.d.h.| T H.b + + o o + + + + + + + + + + + + + + + + ",
"+ + + + + + + + + + + + + + + + + + X O 5 A.Y w.v.h.X.H P t + + @ + + + + o + + + + + + + + + + + + ",
"+ + + + + + + + + + + + + + + + + 2 W.-.$.%.%.%.%.%.%.%.$.=.%.z.k + + + + + + + + + + + + + + + + + ",
"+ + + + + + + + + + + + + + + + + : j.-.,.%.%.%.*.$.%.*.*.%.%.5.0 + + + + + + + + + + + + + + + + + ",
"+ + + + + + + + o + + + + + + + x.j.I , + + + + @ M G ) $.%.;.@.r.V.. + + + O + + + + + + + + + + + ",
"+ + + + + + + + o X + + o + + o j.Q.K.j + + + + * g M.b.%.$.;.5.} V.O + O + + O o + + + + + + + + + ",
"+ + + + + + + + + + + + + + n i $ @ + + + + + + o + + o c [ -.-.%.-.a + + + + + o o + + + + + + + + ",
"+ + + + + + + + + + . + + + x p s o + + O + + + + X + + I.t.%.-.%.-.0 + X + + + + + + + + + + + + + ",
"+ + + o + + + + + + + + O + = 1 o + + + + + + X o o + + O 1 -.%.%.%.> o + + + + + + + + + + + + + + ",
"+ + + + + + + + + O o O + + 1 3 + + o + + + + + + + + O o = -.%.%.%.0 o + + + + + + + + + + + + + + ",
"+ X + + + + + + + + + + + + + o + o + + + X + + + X + + o o ^ $.%.%.+ + + + X + + + + + + + + + + + ",
"+ + + + + + + + + + + + o + + + + + + + + + + + + + + + + + ^ &.%.%.+ + + + + o + + + + + + + + + + ",
"+ + o + + + + + + + + + + + + + + + + + + + o + + X + + + 1 o.,.] a + + + + + + + + + + + + + + + + ",
"+ + + + + + + + + + + + + + + o + + + + + + + + + + + O + < &.&.G.l + + + + + + + + + + + + + + + + ",
"+ + + + + + + + + + + + + + + + + + + + + + + + + X + + V K { 0.+ + + + + + + + + + + + + + + + + + ",
"+ + + + + + + + + + + + + + + + + + + + + + + + X + + + z J t.^.+ O + + O + + + + + + + + + + + + + ",
"+ + + + + + + + + + + + + + + X + + + + + + + + + o X B y.D + + + + + + + + + + + + + + + + + + + + ",
"+ + + + + + + + + + + + + + + + + + + + + + + + + + X % } e.X X + + + + + + + X + + + + + + + + + + ",
"+ + + + + + + + + + + + + + + + + + + + + + + + o g z.7.7.~.D.V + + + X + + + + + + + + + + + + + + ",
"X + + + X + + + + o + + + + + + + + + + + + + + + # 4.8.8.h.F 7 + X + o X + + + + + + + + + + + + + ",
"+ + + + o + + + + + + + + + + + o + + + o h R.6.*.$.%.*.#.#.%.%.u.L.X o o X + + + + + + + + + + + + ",
"+ + + + + + + + + + + + + + + + + + + + + r i.4.%.%.*.*.#.#.%.%.w.u X o o @ + + + + + + + + + + + + ",
"+ + + + + + + + + + + + + + + + X + + + o o O + o + w ' %.*.( ~ %.*.e.j X o o + + + + + + + + + + + ",
"+ + + + + + + + + + + + + + + + + + + + + + + + + + m !.*.$.~ 9.%.%.t.9 + + + o + + + + + + + + + + ",
"+ X + + + + + + + + + + + + + + + + + + + O + + + + + + + 0 %.*.*.%.%.h.+ + + + + + + + + + + + + + ",
"+ o + + + + + + + + + + + + + + + + + + + + O + + X + + + h 6.$.%.$.%.h.+ o + + + + + + + + + + + + ",
"+ + + + + + + + + + + + + + + + + + o + + + + + + + + + + + a r.#.%.%.*.f o + o + + + + + + + + + + ",
"+ + + + + + + + + + + + + + + + O + + + + + + + + X + o + o l U @.*.%.*.8 + + + + + + + X + + + + + ",
"+ + + + + + + + + + + + + + + + + + + + + + + + o + + + + + + = v.O.*.$.q o + + + + + + + + + + + + ",
"+ + + + + + + + + + + + + + + + + + + + + + + + + + + + + + + = f.*.&.*.e + + + + + + + + + + + + + ",
"+ + + + + + + + + + + o + + + + + + + + + + + + + + + + + + + O A >.%.%.a + o + + + + + + + + + + + ",
"+ + + + + + + + + + + + + + + + + + + + + + + + + + + + + + + + S &.%.%.d + + + + + + + + + + + + + ",
"+ + + + + o + X + + + o + + + + + + + + + + + + + + + + + + + + &.*.%.c.X o + + + + + + + + + + + + ",
"+ + + + + + + + + + + + + + + + + + + + + + + + + + + + + + + X &.&.%.T.+ o + + + + + + + + + + + + ",
"+ + + + + + + + + + + + + + + X + + + + + + + + + O + + + + + j %.%.Y.* + + o + + + + + + + + + + + ",
"+ + + + + + + + + + + + + + + + + + + + + + + + + + + + + + + q %.*.B.* + + + + + + + + + + + + + + ",
"+ + + + + + + + + o + + + + + + + o + + + + + O o + o O + O N.X.[ Z.@ + + + + + + + + + + + + + + + ",
"+ + + + + + + + @ + + + + + + + + + + + o + + + + + + X + O R Q ` /.+ + + + + o + + + + + + + + + + ",
"+ + + + + + + + X + X + + 2 <.&.E  .J.P.+ + + + X + O o U.a...W : . + + + + + + + + + + + + + + + + ",
"+ + + + + + + + + o + + + , O.&.:./ p.V.+ + X + + + + O R.' _ m.2 + + + + + + + + + + + + + + + + + ",
"+ + + + + + + + + + + + + : 1.=.-.%.*.*.$.&.<.l.x.E.4.4.  - + + + + + + o + + + + + + + + + + + X + ",
"+ + + + + + + + + + + O + 2 n.%.$.%.*.*.*.*.$.=.g.g.k.z.F.k + + + X + O + + + + + + + + + + + + + + ",
"+ + + + + + + + + + + + + + + + o @ v c N Z C + + + X X + + + + + + O + + + o + + + + + + + + + + + ",
"+ + + + + + + + + + + + + + + + o * 2 4 * & * + + + + + + + + + + + + + + o X X o + + + + + + + + + ",
"+ + + + + + + + + + + + + + + + + + o o o + + + + + + + + + + + + + + + + + + + + + + + + + + + + + ",
"+ + + + + + + + + + + + + + + + + + + + + + + + + o + + + + + + + + + + + + + + + + + + + + + + + + "
};
