/* XPM */
static char *_48_793b1dc18ca4fe49ec1a00499b8c437c9f9894bf857922c59c2f2a1c47c74018[] = {
/* columns rows colors chars-per-pixel */
"50 50 177 2 ",
"   c #6F1F3A",
".  c #171A4F",
"X  c #19194F",
"o  c #1B164E",
"O  c #1B1753",
"+  c #161A51",
"@  c #1A1952",
"#  c #251B4F",
"$  c #231C53",
"%  c #2B1D57",
"&  c #201F58",
"*  c #2B1D5A",
"=  c #17265F",
"-  c #1B235B",
";  c #1B285F",
":  c #292254",
">  c #262258",
",  c #3C2654",
"<  c #3E2B5A",
"1  c #362A5A",
"2  c #1A2961",
"3  c #1B2562",
"4  c #193F76",
"5  c #342662",
"6  c #392B66",
"7  c #5B1A5E",
"8  c #452553",
"9  c #4B2453",
"0  c #4E2A56",
"q  c #4E235D",
"w  c #45285E",
"e  c #532F5F",
"r  c #5E2457",
"t  c #632E40",
"y  c #772344",
"u  c #6A3642",
"i  c #6E2958",
"p  c #62275D",
"a  c #471F65",
"s  c #432E64",
"d  c #4B2D67",
"f  c #493463",
"g  c #5F3B67",
"h  c #5B336A",
"j  c #553666",
"k  c #5C3478",
"l  c #68396F",
"z  c #663A6B",
"x  c #743A6A",
"c  c #76376C",
"v  c #6A2D72",
"b  c #194077",
"n  c #18437A",
"m  c #794061",
"M  c #764064",
"N  c #B01908",
"B  c #A71917",
"V  c #A8171C",
"C  c #8B1C2C",
"Z  c #AA0B29",
"A  c #A81F2F",
"S  c #A4102A",
"D  c #BD1D29",
"F  c #B60E39",
"G  c #A01C37",
"H  c #BA133B",
"J  c #9D2539",
"K  c #942938",
"L  c #A6213E",
"P  c #A92135",
"I  c #BB2628",
"U  c #C80E0C",
"Y  c #D90E00",
"T  c #D50301",
"R  c #CB1C01",
"E  c #C80317",
"W  c #D10013",
"Q  c #D11A16",
"!  c #EB0000",
"~  c #E40A01",
"^  c #E80901",
"/  c #F40201",
"(  c #FD0202",
")  c #FD0B01",
"_  c #F40109",
"`  c #FE010C",
"'  c #FD0909",
"]  c #EA1300",
"[  c #E71F00",
"{  c #EC1C03",
"}  c #E5120B",
"|  c #FF1703",
" . c #F41607",
".. c #ED0411",
"X. c #EC0912",
"o. c #FE0212",
"O. c #FF0914",
"+. c #FE001E",
"@. c #F20114",
"#. c #FD1314",
"$. c #F61910",
"%. c #F71219",
"&. c #FE1E1C",
"*. c #C6281D",
"=. c #E3201C",
"-. c #C40B22",
";. c #D40029",
":. c #D7092F",
">. c #DE0724",
",. c #CD152F",
"<. c #D7122B",
"1. c #C20B37",
"2. c #ED022D",
"3. c #FB0022",
"4. c #F7012A",
"5. c #FA092B",
"6. c #E50038",
"7. c #E50237",
"8. c #F00138",
"9. c #C32526",
"0. c #D4383B",
"q. c #FF2924",
"w. c #FF2B29",
"e. c #FF2136",
"r. c #F32237",
"t. c #FF3D31",
"y. c #FE4028",
"u. c #8C1C4C",
"i. c #9A1844",
"p. c #911957",
"a. c #9A1E50",
"s. c #A20B42",
"d. c #A11D4E",
"f. c #B11D44",
"g. c #AD1C57",
"h. c #8D294B",
"j. c #8D2143",
"k. c #9A2847",
"l. c #83215C",
"z. c #9B2353",
"x. c #A3214D",
"c. c #B32546",
"v. c #AD2659",
"b. c #A93F53",
"n. c #861F70",
"m. c #931C78",
"M. c #843E69",
"N. c #8C3D69",
"B. c #963C6F",
"V. c #873B78",
"C. c #BF3767",
"Z. c #AB2975",
"A. c #DE0F45",
"S. c #C01F49",
"D. c #D81949",
"F. c #C61857",
"G. c #CB2040",
"H. c #D63352",
"J. c #F32148",
"K. c #E33745",
"L. c #844267",
"P. c #954466",
"I. c #AC466D",
"U. c #BD4864",
"Y. c #FF4440",
"T. c #FD5F5C",
"R. c #F54873",
"E. c #A12583",
"W. c #A85A8C",
"Q. c #F97695",
"!. c #EC74A1",
"~. c #F47AA3",
"^. c #12A8A6",
"/. c #0EBFE1",
"(. c #2EC9C1",
"). c #1AC7FF",
"_. c #29D0FC",
/* pixels */
"@ @ @ @ @ @ @ @ @ @ @ X O @ @ @ @ @ @ @ @ O @ @ @ @ . @ @ @ @ @ @ @ @ + @ @ @ @ @ @ @ @ @ @ @ @ @ @ ",
"@ @ @ @ @ @ @ @ @ @ @ @ @ @ @ O @ @ @ @ @ @ @ @ @ @ @ @ @ @ @ @ + @ @ @ @ @ @ @ @ @ @ @ @ @ @ @ @ @ ",
"@ @ @ @ @ @ @ @ @ @ @ @ @ @ @ @ @ @ @ @ @ @ X @ @ @ @ @ @ @ @ @ @ @ O O + @ @ @ @ @ @ @ @ @ @ @ @ @ ",
"@ @ @ @ @ @ @ @ @ @ @ @ @ @ @ @ @ @ X @ @ @ @ @ O @ @ @ @ @ @ $ @ @ O @ @ @ @ @ @ @ @ @ @ @ @ @ @ @ ",
"@ @ @ @ @ @ @ @ @ @ @ @ @ @ @ @ @ @ @ @ @ @ @ @ @ @ @ @ @ @ w u.Z H O @ @ @ + @ @ @ @ @ @ @ @ @ @ @ ",
"@ @ @ @ @ @ @ @ @ @ @ @ @ X @ @ @ @ @ @ @ @ @ @ @ @ @ @ @ @ s R.:.H O O @ @ @ @ @ @ @ @ @ @ @ @ O @ ",
"@ @ @ @ @ @ @ @ @ @ @ @ @ @ O @ @ O @ @ @ @ @ @ @ @ @ @ s c.@.o.( ( @ O O @ @ @ @ @ @ @ @ @ @ @ @ @ ",
"@ @ O @ @ @ @ @ @ @ @ @ O @ @ @ @ @ @ @ @ @ @ @ @ @ @ @ < <.+.o.( ( @ @ @ O + @ @ @ @ @ @ @ O @ @ @ ",
"@ @ @ @ @ @ @ @ @ @ @ @ @ @ @ @ @ + @ @ @ @ + @ $ @ @ f ( ( O._ ( ( O @ @ O @ @ @ @ @ @ @ @ @ @ @ @ ",
"@ X @ @ @ @ @ @ @ @ @ @ @ @ @ @ + @ @ @ @ @ @ @ @ @ @ , ) / O.o.( ( O O @ @ . @ @ @ @ @ @ @ @ @ @ @ ",
"@ @ @ @ @ @ @ @ @ @ O X @ @ @ @ @ @ @ @ @ @ @ @ @ + &.' D.D.T ) ( ( @ @ @ @ @ @ @ @ @ @ @ @ @ @ @ @ ",
"@ @ @ @ @ @ @ @ @ @ @ @ @ @ @ @ @ @ @ @ @ @ @ @ @ @ ' / C.v.~ ( ( ( @ @ @ @ @ @ X @ @ O @ @ @ @ @ @ ",
"@ @ @ @ @ @ @ @ @ @ @ @ @ @ @ @ @ @ O @ @ @ @ @ U.G   0 @ @ ( ) ] B O @ @ O @ @ @ @ @ @ @ @ @ @ @ @ ",
"@ @ @ @ @ @ @ @ @ @ @ @ @ @ O X O @ @ @ O @ @ X c.S y j O X / ) ] V @ O @ O @ @ @ @ @ @ @ @ @ @ @ @ ",
"@ @ @ @ @ @ @ @ @ @ @ @ @ @ @ @ @ + @ + @ @ @ s O.` @ @ @ $ ) ( ( ( @ + @ X O @ @ @ @ @ @ X @ @ @ @ ",
"O @ @ @ @ @ X O O @ @ @ @ @ @ @ @ @ @ O O @ @ 8 o.e.@ @ @ % ) ( ( ` @ O @ @ X @ @ @ @ @ @ @ @ @ @ @ ",
"@ @ @ @ @ @ @ @ @ @ @ @ @ @ @ @ @ @ @ @ @ @ f.F , @ @ @ @ : ( ( ( 4.@ @ @ @ @ @ @ @ @ @ @ @ O @ @ @ ",
"@ @ @ @ @ @ @ @ @ @ @ @ @ @ @ @ @ O @ @ O X H 1.< O @ @ @ : ( ( ( 3.@ @ @ @ @ @ @ @ @ @ @ @ @ @ @ @ ",
"@ @ @ @ @ @ @ @ @ @ @ @ @ @ @ @ @ @ @ @ K.X.C : @ @ @ @ O * ( ( ( / @ + @ @ @ @ @ @ @ @ @ @ @ @ O @ ",
"@ @ @ @ @ @ @ @ @ @ @ @ @ @ @ @ @ @ @ @ %.X.0.> @ + + @ O % ( ` ' / @ @ X @ @ @ @ @ @ @ @ @ @ @ X @ ",
"@ @ @ @ @ @ @ @ @ @ @ @ @ @ @ @ @ @ O i { { /.- X O @ @ @ 9 ( ) ( / + @ @ @ @ @ @ @ @ @ @ @ @ @ @ @ ",
"@ @ @ @ @ @ @ @ @ @ @ @ @ @ @ @ @ @ @ $ { y.= ; @ @ @ @ X 9 ` ( ) ! @ @ @ @ @ @ @ @ @ @ @ @ @ @ @ @ ",
"@ @ @ @ @ @ @ @ @ @ @ @ @ @ @ @ @ @ ' ( @ @ @ @ @ @ @ @ @ : ( ) ) _ @ @ @ @ @ @ @ @ @ @ @ @ @ @ @ @ ",
"@ @ @ @ @ @ @ @ @ @ @ @ @ @ @ @ @ @ / ( @ @ O @ @ @ @ @ @ $ ( ( ( _ @ @ @ @ @ @ @ @ O @ @ @ @ @ @ @ ",
"@ @ @ @ @ @ @ @ @ @ @ @ @ @ @ @ H.-.@ @ n b @ @ @ @ @ @ @ % ' ( ( +.O @ @ + @ @ @ @ @ @ @ @ @ @ @ @ ",
"@ @ @ @ @ @ @ @ @ @ @ @ @ @ O @ ,.>.e @ b b + @ X @ @ @ @ * ( ( ( +.+ O @ @ O @ @ @ @ @ @ @ @ @ @ @ ",
"@ @ @ @ @ @ @ O @ @ @ @ @ @ 6 l.T q.@ @ @ @ @ @ @ @ @ @ X u ] ) ( 8.@ @ @ @ @ + @ O @ @ @ @ @ @ @ @ ",
"@ @ @ @ @ @ @ @ @ @ @ @ @ @ 5 F.} Y.+ @ @ @ $ @ @ @ + @ @ t ~ / ( 2.X X + O @ @ @ @ @ @ @ @ @ @ @ @ ",
"@ @ @ @ @ X @ @ @ + @ @ O 1 H ;.^.@ - - @ X @ @ @ @ 3 3 @ $ o.O.o.` O @ @ O @ O @ @ @ X @ @ @ @ @ @ ",
"@ @ @ @ @ @ @ O @ @ @ @ @ > ;.J.(._.).- O @ @ @ @ @ 3 2 + @ ` _ ` ` @ @ @ X X O @ @ @ @ @ O @ X @ @ ",
"@ @ @ @ @ @ @ @ @ @ @ @ Z.s.=.T.Q.~.!.j l l 6 s g M s s I.r.o.( / ) s 6 d k k k @ @ @ @ @ @ @ @ @ @ ",
"@ @ @ @ @ @ @ @ @ @ @ @ Z.A.U Q G z.a.a.x.x.h.h.j.h.z.h.,.W ` ' ) ' W.V.n.m.E.a @ @ @ @ @ @ @ @ @ @ ",
"@ @ @ @ @ @ @ @ X @ @ @ 7.` ( ) ` ( ( ( ( ( ( ( ! #.( ( ( ( ( ( / ( ( | ( /  .j.@ @ @ @ @ @ @ @ @ @ ",
"@ @ X O @ @ @ @ @ @ @ @ 7.O.) ( ( ( ( ( ( ( ( (  .w.O.( ` ` ` ` _ _ ( / ( / ] k.@ @ @ @ @ @ @ @ @ @ ",
"@ @ @ @ @ @ @ @ @ @ O @ 7 g.K K A P J J L L k.k.a.v.x.i.D U R Y ( ( I c.f.g.p.& @ @ O @ @ @ @ @ @ @ ",
"@ @ @ @ @ @ @ @ @ @ @ @ v c m m P.P.L.L.N.M.x x l x c L.U.9.R [ ( ( b.B.N.V.h > @ @ @ @ @ @ @ @ @ @ ",
"@ @ @ @ @ @ @ @ @ @ @ @ O @ O @ @ @ @ @ @ @ @ @ O o @ X X p ( ( ( ! @ @ @ O @ @ @ @ @ @ @ @ @ @ @ @ ",
"O @ @ @ @ @ @ @ - @ @ @ @ @ @ @ @ @ @ @ @ @ @ @ @ @ @ @ @ p O.( ) ) @ @ @ @ @ @ @ @ @ @ @ @ O @ @ @ ",
"@ @ @ @ @ O @ @ X X @ @ @ @ @ X @ @ O @ @ @ X @ @ @ @ O O q o._ E 9 @ @ @ @ @ @ @ @ @ @ @ @ @ @ @ @ ",
"@ @ @ @ @ X @ @ @ @ @ X @ O @ @ @ + @ @ + @ O @ O X @ @ X q ` o.<.h @ @ @ @ @ @ @ @ @ @ @ @ @ @ @ @ ",
"@ @ @ @ @ @ @ @ @ @ @ @ @ @ @ @ @ @ @ @ @ @ @ @ @ X @ @ @ 8 ( ( ( +.@ O @ @ @ @ @ @ @ @ @ @ @ @ @ @ ",
"@ @ @ @ @ @ @ @ @ @ @ @ @ @ @ @ @ @ @ @ @ @ @ @ @ @ @ @ @ 0 | ( ' 3.@ @ @ @ @ @ @ @ @ @ @ @ @ @ @ @ ",
"@ @ X @ @ @ @ @ @ @ @ @ @ @ @ @ @ @ @ @ @ @ @ @ @ @ O @ @ < q.^ =.N @ @ @ @ @ @ @ O @ @ O X @ @ @ @ ",
"@ @ O @ @ @ @ @ @ @ @ @ @ @ @ @ @ @ @ @ @ @ @ @ @ @ @ X @ 1 $. .t.*.- @ + @ @ @ @ @ @ @ @ @ @ @ @ @ ",
"@ @ @ @ @ @ @ @ @ @ @ @ @ O X @ @ @ @ @ @ @ @ @ @ @ @ @ @ 9 3.+.5.-.$ O @ @ $ @ @ X @ @ @ @ @ @ @ @ ",
"@ @ @ @ @ @ @ @ @ @ @ @ @ @ @ @ @ @ @ @ @ @ @ @ @ @ @ @ @ e 5...>.S > @ @ @ @ @ @ @ @ @ @ @ @ @ @ @ ",
"@ @ @ @ X O @ @ @ @ @ @ @ @ @ @ @ @ @ @ @ @ @ @ @ @ O @ X @ @ O @ @ @ @ @ @ X X @ @ @ O @ @ @ @ @ @ ",
"@ @ @ @ @ @ @ @ @ @ O @ @ @ @ @ @ @ @ @ @ @ @ @ @ @ . @ @ X @ X @ @ @ + @ O @ @ @ @ @ @ @ @ @ @ @ @ ",
"@ @ @ @ @ @ @ @ @ @ @ @ @ @ @ @ @ @ @ @ @ @ @ @ @ @ @ @ @ @ @ @ @ @ @ @ @ @ @ @ @ @ @ @ @ @ @ @ @ @ ",
"@ @ O @ X @ @ @ @ @ @ @ @ @ @ @ @ @ @ @ O @ @ @ X @ @ @ @ @ @ @ @ @ @ @ @ @ @ @ @ @ @ @ @ @ @ @ X @ "
};
