/* XPM */
static char *_755b6954e0c4e41ce5e16754d2ccbc3tQy1qKXRhkDSkQ5a[] = {
/* columns rows colors chars-per-pixel */
"50 50 188 2 ",
"   c #5C123B",
".  c #5F1C3F",
"X  c #52133E",
"o  c #681036",
"O  c #63103A",
"+  c #1A194E",
"@  c #1B164E",
"#  c #1B1752",
"$  c #161951",
"%  c #1A1952",
"&  c #1A1B58",
"*  c #24174E",
"=  c #2A174D",
"-  c #21184F",
";  c #2D184C",
":  c #3B1549",
">  c #381849",
",  c #231D54",
"<  c #2A1D55",
"1  c #201F58",
"2  c #2C1C5A",
"3  c #1E2053",
"4  c #292152",
"5  c #25225B",
"6  c #2C215B",
"7  c #382B56",
"8  c #34245C",
"9  c #3E2B5B",
"0  c #372553",
"q  c #3B3F65",
"w  c #392B66",
"e  c #4C1242",
"r  c #571E53",
"t  c #4B2453",
"y  c #4F2B57",
"u  c #412659",
"i  c #4D215C",
"p  c #45285E",
"a  c #462753",
"s  c #532F5F",
"d  c #5E2457",
"f  c #612C40",
"g  c #6E274F",
"h  c #6C2247",
"j  c #7B2C4C",
"k  c #6B3542",
"l  c #62275D",
"z  c #471F65",
"x  c #5C1960",
"c  c #432E66",
"v  c #4B2D67",
"b  c #453163",
"n  c #4B3963",
"m  c #513460",
"M  c #5B336A",
"N  c #5D3677",
"B  c #5B3379",
"V  c #603D67",
"C  c #71376A",
"Z  c #73396B",
"A  c #793A69",
"S  c #6A2D72",
"D  c #764064",
"F  c #794061",
"G  c #B01908",
"H  c #A71917",
"J  c #A7181C",
"K  c #BA071A",
"L  c #960C25",
"P  c #89122E",
"I  c #871C36",
"U  c #A90F27",
"Y  c #AD072B",
"T  c #A3122A",
"R  c #A81F2F",
"E  c #B8192C",
"W  c #BA0F3B",
"Q  c #A01E3A",
"!  c #AE163C",
"~  c #BD143B",
"^  c #9D2539",
"/  c #942938",
"(  c #A6213E",
")  c #A92135",
"_  c #BB2628",
"`  c #C70F0D",
"'  c #D90600",
"]  c #D90E00",
"[  c #DF080F",
"{  c #CB1C01",
"}  c #C80317",
"|  c #C80E19",
" . c #C40E1D",
".. c #DE0B12",
"X. c #D70319",
"o. c #DD151F",
"O. c #EE0303",
"+. c #E30B02",
"@. c #EB0F04",
"#. c #ED020C",
"$. c #E40907",
"%. c #F40202",
"&. c #FD0202",
"*. c #F70900",
"=. c #FD0B01",
"-. c #F3020B",
";. c #FD010A",
":. c #FB080A",
">. c #ED1200",
",. c #E61F00",
"<. c #FF1703",
"1. c #F61B07",
"2. c #F5150A",
"3. c #EF0715",
"4. c #E80A17",
"5. c #E30715",
"6. c #FE0312",
"7. c #FF0916",
"8. c #FC001E",
"9. c #F30117",
"0. c #FD1313",
"q. c #F61910",
"w. c #FE1A18",
"e. c #C7291E",
"r. c #E52018",
"t. c #C70C21",
"y. c #D7092F",
"u. c #DD0125",
"i. c #C21121",
"p. c #DC1228",
"a. c #D2112E",
"s. c #C61F33",
"d. c #D71635",
"f. c #EB022A",
"g. c #FB0022",
"h. c #F7012A",
"j. c #FA092A",
"k. c #FF1623",
"l. c #E90230",
"z. c #EF0238",
"x. c #C32428",
"c. c #D22F2A",
"v. c #FF2821",
"b. c #FF2C29",
"n. c #F22136",
"m. c #E5313D",
"M. c #FF3C30",
"N. c #8C1C4C",
"B. c #9B1946",
"V. c #921C54",
"C. c #B21D44",
"Z. c #AF1E55",
"A. c #AB1958",
"S. c #8E2043",
"D. c #89294A",
"F. c #9B244B",
"G. c #972A4A",
"H. c #9C2845",
"J. c #962054",
"K. c #982350",
"L. c #A3214F",
"P. c #B42044",
"I. c #A02050",
"U. c #AD2759",
"Y. c #BC235C",
"T. c #861F70",
"R. c #931C78",
"E. c #873D68",
"W. c #963D6D",
"Q. c #803971",
"!. c #8D3C7E",
"~. c #B0226C",
"^. c #D71142",
"/. c #DB1D4B",
"(. c #CB2040",
"). c #DD2C46",
"_. c #CC2D53",
"`. c #A94051",
"'. c #834267",
"]. c #8B4067",
"[. c #954466",
"{. c #AC466D",
"}. c #B04766",
"|. c #BF4460",
" X c #BC4A64",
".X c #F54873",
"XX c #A12583",
"oX c #A85A8C",
/* pixels */
"% % % % % % % % % % % % % % % % % % % % % % # % % % + % % % % & % # % & @ $ & + % % % # % % % % % % ",
"% % % % % % % % % % % % # % % % % % % % % + % % % # & % # + % + $ % + $ % % $ % % % % % % % # % % % ",
"% % % % % % % % % % % % % % % % % % % % % % % % % % % + % % + # % % # % % % $ % % % % % % % % % + % ",
"% % % % % % % % % % % % % + % % # % % % % % % % # % % & % % % # % + & % & @ % % % % % % % % % % % % ",
"% % % % % % % # % % % % % % % % % % % % % % % % & 3 % % % % p N.Y W # $ % % $ % % % % % % # % % % % ",
"% % % % % % % % % + % % % % % % % % % % % % % % + % % % % % v .Xy.~ % # % % % % % % % % + % % % % % ",
"% % % % % % % % % # % % % % % % % + % % % % # % & + % % b C.9.6.&.&.% % % % % $ % % % % % % % % % % ",
"% % % % % + % % % % % % % % % % % % % % % % % % + % % # 9 a.8.6.&.:.% % % % % % % % % % % % % % % % ",
"% % % % % % % % % % % % % % % % $ $ % % % # & % # % # n &.&.6.-.&.&.# % % % % $ % % % % % % % % % % ",
"# % % % % # % % % % % % % % % % $ % % % $ $ % % % % # 7 =.%.6.6.&.&.# # % % % $ % % % % % % % % % % ",
"% + % % % % % % % % % % % % % % # % % % # + % % % $ w.:.^./.' =.&.&.+ % % % % % % % % % % % % % % % ",
"% % % % % % % % + % % % % % % @ & % % % % % % & # ; =.&._.U.+.=.&.;.$ % % % % % % % % % + # % % % % ",
"% % % % % % + % % % % % % % % % % % % % % % % % |.i.[  .: # =.=.@.H % % $ # $ + % % % % % % % % % # ",
"% % # % % % % % % % % % % % % % % % $ % # # % - s.#.[ j # + %.=.@.J % # # # # + % % % % % % % % % % ",
"% % % % % % % % # % % % % % % % % $ % & % % # g &.&.  * # , =.=.&.&.% % % % % % % % % % % % # % % % ",
"% % % % % % % % % % % % % % % % % + @ & # # ; U &.k.* & # < =.&.=.&.% & % % % % + % % # % % % + % % ",
"% % % % % % % % % % % % % % % % % $ % # % # d.#.T ; + $ % 4 =.&.&.h.% % % % % % % % % % % % % % % + ",
"% % # % % % % % % % % % % % % % % # % % + : 4.-.h # % $ & 4 &.&.&.h.+ % % % # % % % % % % % % % % % ",
"% % % % % + % # % % % % % % % % % + % # m.-.-.P = % + % # 2 &.&.&.%.% % % + % % % % % % % % % % % % ",
"% % % % % % % % % % % % # + % % % % % > :.=.o.> % % % % # 2 &.;.&.%.# $ % & $ % % % % # % % % % % % ",
"% % % % % % % % % % % % % % % % $ # ; E &.@.q # % % & % # t :.=.&.%.$ % & % % % % % % + % % % % % % ",
"% % % % % % % % % % % % % % % % % + e 5.*.c.% % # % $ % + t &.=.=.%.$ % % % % % % % % % % % % % % % ",
"+ % % % % % % % # % % % % % % % % - =.&.o # % % % % # % # , &.=.&.#.$ # + & % % % % % % % % % % % % ",
"# % % % % % % % + % % % % % % % #   =.&.: # % % % % % % % < &.&.=.-.+ % % % $ % % % % % % # % % % % ",
"% % % % % % % % % & % % % % # % ).#.%.K 0 # + & % % % % % < :.&.;.8.@ $ % $ % % % % % % % % % % # % ",
"% % % % % % % % % + + # % % % * 4.&.O.O % # % $ + % % % $ < &.&.&.8.% @ & % # % % % # % % % % % % % ",
"% % % % % + % % % % + $ % % w ! =.;.L = % % % % % 3 % % # k >.=.&.z.# $ + % % $ % % % + % % % % % % ",
"% % % % % % # % % % & % % $ r 3.&.| > % % % % + % % $ % $ f +.O.&.l.+ + $ # % # % % % % % % % % % % ",
"% % % % % % % % % $ % % # 8 5.&.[ X # # # % % % # % % % # % 6.7.6.;.# + % % % # % % % % % # % % % % ",
"% % % % % % % % + + & # # f ;.&.I + % # # , + % & % % & + % ;.;.;.;.& % % + # # % % % % % % % % % % ",
"% % % % % % % % % # # & ~.X.&.w.}.9 8 5 8 8 5 6 m V c c }.n.6.&.%.=.b w v B N B % % % % % % + % % % ",
"% + % # % % % % $ # & - Y.;.=.5.Q F.K.V.K.I.D.D./ H.K.V.s.X.-.:.=.=.oX!.T.R.XXz % % % % % % % % % % ",
"% % % % % % % % + + % % f.&.&.=.;.&.&.&.&.&.&.&.O.0.&.%.&.&.&.&.%.&.=.=.&.%.1.N.+ + % % % % % % % % ",
"% % % % % % % % % % & 3 l.;.&.=.&.&.&.&.&.&.=.&.2.b.7.&.&.;.;.;.-.:.=.%.&.-.>.G.# # % % % % % % % % ",
"% % % % % % % % % # % % r Z./ / R ) ^ ^ ( ( H.H.N.U.L.Q s.` { ] &.*._ C.C.A.V., % % % % % % % + % % ",
"% % # % % % % % % % % % S A F A [.[.'.'.].E.A Z C Z C E. Xx.{ ,.=.=.U.W.W.A M 5 % % % % % % % # % % ",
"% % % + % % % % % % % + # , % & % $ % % % $ + % # # % # + d -.&.=.O.& @ % % & % % % # % % % % % % % ",
"% % % % % % % % % # + % # # % # % % % % # # % % % % % % % l 6.&.=.*.% % % % % % % % + % % % % % % # ",
"% % % % % # % % % % % & $ % % $ @ % # % % $ % % + % + % % i 6.-.} t # % + % % % % % % % % % % % % % ",
"% % % % % % % % % $ % + % # % # & % $ % % % # % # % % % $ i ;.6.p.M % % $ # # % % % % % % % % % % % ",
"% % % % % # % % % % % % % % % % % % % % % % % % % + % % # a =.&.&.8.% + % % % % % % % % % % % % % % ",
"% % % % % % % % % % % % % % % % % % % % # + % % & % # % # y <.&.:.g.% % % % # & % % % % % # % % % % ",
"% % % % % % % % % % % % % % & % % % % % % % % % + $ # % # 7 v.+.r.G 3 & % % + % % % % % % % + % % % ",
"% % % % % % % + % % % % % % % % % % % % % % % % % % % @ & 7 q.2.M.e.3 % $ % # % % % % % % % % % % % ",
"% % % % % % % % % % % % % % % % % % % % % % % % % # % & % t 8.g.j.t., % % % # % % + % % % % % % % % ",
"+ # % % % % % % % % % % % % % % % % % % % % % % % % + + $ s h.#.u.T 5 % + % % # % % % % % % % % % % ",
"% % % % % % % % % % % % % + % % % % % % % % % % % $ # % + % % % + @ & $ , & % + % % % % # % % % % % ",
"% % % % % % % % % % % % % % % % % % % % % % % % % % + % % + % + $ & % + % % % % % % % % % % % % % + ",
"% % % % % % % # % % % % % % % % % # % % % % % % % % % % % % % % % % % % % % % % % % % % % % % % % % ",
"% % % % % % % % % + % % % % % % % % % % % % % % + % % # % % % % % % % % % % % % % % % % % % % # % % "
};
