/* XPM */
static char *_7298_d6ece25928a0e0d24852464ed817c3a888fadd35b2d03b684aed0f8711f733c6[] = {
/* columns rows colors chars-per-pixel */
"50 50 196 2 ",
"   c #64243F",
".  c #171A4F",
"X  c #19194F",
"o  c #1B1753",
"O  c #171A51",
"+  c #1A1952",
"@  c #1C1958",
"#  c #2D1B4B",
"$  c #211D56",
"%  c #281B51",
"&  c #271F58",
"*  c #311D5A",
"=  c #26264C",
"-  c #3E254C",
";  c #2B245E",
":  c #2C295B",
">  c #292159",
",  c #32245D",
"<  c #3C235C",
"1  c #35285B",
"2  c #3D2A5B",
"3  c #372756",
"4  c #3E355E",
"5  c #2A2760",
"6  c #342B61",
"7  c #3A2B64",
"8  c #3C2B68",
"9  c #3E2664",
"0  c #3D3B60",
"q  c #581B47",
"w  c #761F4B",
"e  c #691C46",
"r  c #482A4E",
"t  c #542645",
"y  c #472854",
"u  c #40225E",
"i  c #4C2250",
"p  c #552C59",
"a  c #532259",
"s  c #4A345A",
"d  c #53395C",
"f  c #64274E",
"g  c #7E2747",
"h  c #76384D",
"j  c #632854",
"k  c #6A3A59",
"l  c #753653",
"z  c #402864",
"x  c #432E6C",
"c  c #443465",
"v  c #443269",
"b  c #4B3B66",
"n  c #543F69",
"m  c #573367",
"M  c #513A70",
"N  c #5A3C70",
"B  c #6A2F67",
"V  c #69276F",
"C  c #612C62",
"Z  c #792060",
"A  c #782F66",
"S  c #742E64",
"D  c #673866",
"F  c #703160",
"G  c #6E2F76",
"H  c #613F72",
"J  c #73465A",
"K  c #434166",
"L  c #5C436C",
"P  c #61466D",
"I  c #744663",
"U  c #B01E07",
"Y  c #992D10",
"T  c #BA2304",
"R  c #8E183A",
"E  c #881B3A",
"W  c #B8012F",
"Q  c #BD0E2F",
"!  c #AC1B2C",
"~  c #B1182D",
"^  c #AE0530",
"/  c #AC0936",
"(  c #B60C33",
")  c #B71137",
"_  c #872137",
"`  c #9D233A",
"'  c #B22429",
"]  c #CD0508",
"[  c #DF0303",
"{  c #D00C00",
"}  c #DF0209",
"|  c #DA0A08",
" . c #DC1301",
".. c #DA150B",
"X. c #CF0E1F",
"o. c #CF1918",
"O. c #CC1215",
"+. c #DF1511",
"@. c #DD1B12",
"#. c #E50304",
"$. c #EB0302",
"%. c #E40B00",
"&. c #EC0D00",
"*. c #E10708",
"=. c #E30E0B",
"-. c #EB0B0B",
";. c #E8010B",
":. c #F40102",
">. c #FC0201",
",. c #F30B02",
"<. c #FE0A01",
"1. c #F4030B",
"2. c #FD030C",
"3. c #F70B0A",
"4. c #EF1102",
"5. c #E21900",
"6. c #EC1800",
"7. c #F51300",
"8. c #FF1601",
"9. c #F8150E",
"0. c #EF0212",
"q. c #E60F16",
"w. c #F30213",
"e. c #FE0114",
"r. c #FE0A14",
"t. c #F70019",
"y. c #FD001C",
"u. c #EA1317",
"i. c #FF191B",
"p. c #FE1914",
"a. c #D43401",
"s. c #FF2B15",
"d. c #DB0924",
"f. c #D6092D",
"g. c #C1102C",
"h. c #CB093B",
"j. c #D40938",
"k. c #D10B38",
"l. c #CE1D39",
"z. c #C4082B",
"x. c #E8002A",
"c. c #E70326",
"v. c #FE0124",
"b. c #FF0926",
"n. c #FE012D",
"m. c #FF0929",
"M. c #FF1427",
"N. c #ED0435",
"B. c #ED013F",
"V. c #F60538",
"C. c #E51635",
"Z. c #D92C2B",
"A. c #CC2539",
"S. c #DC393E",
"D. c #E62E26",
"F. c #FF2C28",
"G. c #FD212D",
"H. c #F03025",
"J. c #FA3431",
"K. c #A44519",
"L. c #9D0E46",
"P. c #931248",
"I. c #AC154B",
"U. c #B21A40",
"Y. c #88214E",
"T. c #962848",
"R. c #9F3647",
"E. c #822B5E",
"W. c #8B3B55",
"Q. c #9B325D",
"!. c #B52D4A",
"~. c #AD314B",
"^. c #A5265D",
"/. c #BE2051",
"(. c #822D65",
"). c #9A3B63",
"_. c #AD3968",
"`. c #B73C6D",
"'. c #D90841",
"]. c #D6044B",
"[. c #CE1F40",
"{. c #CB194B",
"}. c #E4034B",
"|. c #EC0F44",
" X c #EC1E45",
".X c #D1244F",
"XX c #CD2654",
"oX c #E92A49",
"OX c #C91B62",
"+X c #904A42",
"@X c #9F5A4A",
"#X c #8F525A",
"$X c #964475",
"%X c #AF4C6B",
"&X c #A44D7A",
"*X c #EA4067",
/* pixels */
"+ + + + + + + + + + + + + + + + + + + + + + + o + + + + + + O + X + o o o + + + + + + + + + + + + + ",
"+ + + + + + + + + + + + + + + o + X + + + + + O + + + o + + + + X @ + X o + o + + + + + + + + + + + ",
"+ + + + + + + + X + + + + + + + O + + o o + + + + + O X o O o + L L b : O + + + + + + + + + + + + + ",
"+ + + + + + + + + + + + + + + + o o X + + + O + + o @ + o + + + y W.k $ + o O + + + + + + o . + + + ",
"+ + + + + + + + + + + o + + + + + o O + X o + o X + @ D F.9.d./ e ).&X6 $ + + + + + + + + + + + + + ",
"+ + + + + + + + + + + + + + + + + . o + + + + + + + @ T.[ #.C.XX$XP N 6 + + + + + + + + + + + + + + ",
"+ + + + + + + + + + + + + + o + + + + + + O o 5 S.i.:.$.{.& O + . + @ + . + + + + + + + + + + + + + ",
"+ + + + + + o + + + + + + + X + + + + + + + o > o.$.>.p.`.6 O + + + + . + + + + + + + + + + + + + + ",
"+ + + + + + + + + + + o + + + + + + @ + O 2 v.>.<.%.1 + + + + + + + + + + + + + + + + + + + + + + + ",
"X + + + + + + + + + + + + + + + + + + + + 3 y.>.:.s.8 O + + + + + + + + + + + + + + + + + + + + + + ",
"+ + o + + + + + + + + + + + + + @ X + 1 v.t.y.t., o O o + . + + + + + + + + + + + + + + + + + + + + ",
"+ + + + + + + + + + + + + + + + . X . > e.y.y.b.8 o o o O . @ + + X + + + + + o + + + o + + X + + + ",
"+ + + + + + + + + + + + + + + + + o M.:.8.<.  + + . + + + O + + + + + + + + + + + + + + + + + + + o ",
"+ + + + + + + + + + + + + o + + + + 0.<.<.<.l + + + + + @ + + + + + + o + + + + + + + + + + + + + . ",
"+ + + + + + o + X + + + + + + + W.q.<.<.] p + + + O + + O + $ X + + + + + + + + X + + + + + + + + o ",
"+ + + + + + X + + + + + + + + + g } >.>.O.D + + + O + o + + + + + + + + + + + + o + + + + o + + + + ",
"+ + + + + + + + + + . @ X . K ~.v.2.8.<.q o o + + + O O o + o + + . + + + + + + + + + + + + + + + + ",
"+ + + + + X + + $ + X O + . 4 ! v.:.:.>.k + o @ + + O O O o + + + + + + . o + + + + + + + + + + + + ",
"+ + + + + + + + @ . + + X + Q.{  .7.>.y.O @ @ O + 6 n L 8 : @ O + @ o o + @ . + + + + + + + + + + + ",
"+ o + + + + + + + X + + + + Y... .7.:.m.o + O o o > h h J P @ . + + + . + + + + + + + + + + + + o + ",
"+ + + + + + + + . + + + o < >.2.w.>.x._.L s M.,.T U >.2.<.>.:.:./.M X + + + + + + + + + + + + + + + ",
"+ + + + + + + + + o + + + < >.2.>.2.B.*X#X- w.$.a.a.r.:.:.>.<.r.j.u o o + + + o + + + + + + + + + + ",
"+ + + + + + + + X @ + + 8 I.<.>.:.<.w.0.! 2 O O + o X o 2 X.:.1.e.1.) b + X O + + + + + + + + + + + ",
"+ + + + + + + + + + . + 7 j.<.:.<.:.0. X%XM O o + @ X o b A.2.r.e.r.k.2 . + + o + + + + + + + + + + ",
"+ + + + + + + + + + + + A u.<.>.8.:.E.@ + . + + + X @ . o + =.7.%.#.>.v.p + + + + + + + + + + + + + ",
"+ + + + + + + + + + + + F u.>.>.>.:.E.+ + + + + O + + + + + J.&.4.,.>.v.i + + + + + X o + + + + + + ",
"+ + + + + + + + + o . @ !.=.%.,.>.2.+ + + + + + o + o O + + O < :.<.>.>.z.C + + + + + + + + + + + + ",
"X + + o + + + + + + + + !.| %.3.>.e.+ + + + + + o o @ + X + + 9 $.:.<.>.C.a + + + + + + + + + + + + ",
"+ + + + + + + + + + + + Z.[ $.3.y.}.O o + @ + X O + + + + @ O O n.>.7. .H.w + o + + + + + + + + + + ",
"+ + + + + + + + + + + . Z.*.-.1.t.}.O @ . + + o + + + O + o X o |.>.$.5.@.g + o + + + + + + + + + + ",
"+ + + + + + + + X o $ + D.0.e.e.2.1.+ + O + + O + + + + O X + + p +.:.<.%.R @ . + + + + + + + X + + ",
"+ + + + + X o + + + X X D.-.e.e.2.:.+ + + O + + @ + + o + + @ + C ..<.>.&.E $ + + + + + + o + + + + ",
"+ + + + + + + + + + + + V C.&.7.:.v.+ + + + . + + + + + + + + o 8 h.<.:.:.6.+ o + + + + + + + + + + ",
"+ + + + + + + + + o . @ G f.6.3.,.v.@ + + + + + + + + + + X + + x L.<.:.:.%.+ X + + + + + + + + + + ",
"+ + o + + + + + + + + o o T.<.>.>.v.: + + + + + + + + + + + + + O t >.<.7.P.. + + + + + + + + + + + ",
"+ + + + + + + + + . . @ X j >.>.>.v.: + + + + + + + + + + + + + o t >.<.4.^.O @ + + + + + + + + + + ",
"+ + + + + + + + o + + + o X N.2.>.<.f + + + + + + . + + + + + + 6 _ <.<.~ : + + + + + + + + + + + + ",
"+ + + + + + + + o X + + o o B.2.<.>.f o + + . . + + + + + o + + 1 ' <.:.E 5 + + + + + + + + + + + X ",
"+ X + + o + + + + o o + X o z '.>.>.f.(.+ . + + + + + + + + + + |.t.2.-.@ + + + + + + + + + + + + + ",
"+ + + + + + + + O + X + + o x I.<.2.c.Z o + + + + + + + + + + + n.y.2.-.$ + + + + o + + + + + + + + ",
"+ + o + + + + + + + + + + + + @ d.1.>.2.2 + + + + + + + + + O d y.1.^.@ @ + + + + + + + + + + + + + ",
"+ + . + + + + + + + + + + + O > oXr.:.>.2 X @ O + + X + + . @ r :.r.B > O o o o + + + + + + + + + + ",
"+ + + + + + + + + + + + + + O + + X ].;.$.8.@X4 + + o + X I 8.<.Y 1 + + + + + + + X + + + + + + o + ",
"+ + + + + + + + + + + + + + + + o o OXb.<.8.K.= o O + + + % >.>.+X6 + O + + o X + + + + + + o + + + ",
"+ + + + + + + + + + + + + + + + + . o + * W 1.2.( .Xl.g.` # O + + O X + + + + + + + + + + + + + + + ",
"+ + + + + + + + + o + + + + + + + + + + b `.G.r.) ^ Q [.~.J X + + + o + X + + + + o + X + + + + + + ",
"+ + o + o + + + + + + + + + + + X + + + o o o + + + + . + + o + + + + + + + + o + + + + + + + + + + ",
"+ + + + + + + + X + o O X + + + + @ O + + + . + + + @ + + + O o + + + + + + + + + + + + + + + + + + ",
"+ + + + + + + X + + + + + + + + + + + + + + + + + + + + + + + + + + + + + + + + + + + + + + + + + + ",
"+ + + + + + + + + + o + + + + + + + + + + + + + + + o X + + + + + + + + + + + o + + + + + + + + + + "
};
