/* XPM */
static char *_966_e6e214a90291125b2f25faf35d5fbecd74aa93113ab1a58e506c44ce12f2d82c[] = {
/* columns rows colors chars-per-pixel */
"50 50 158 2 ",
"   c #19194F",
".  c #151B4D",
"X  c #1B1752",
"o  c #171951",
"O  c #1A1952",
"+  c #221E57",
"@  c #261D5E",
"#  c #331C58",
"$  c #242255",
"%  c #2A2257",
"&  c #2D245C",
"*  c #2D2A5C",
"=  c #282759",
"-  c #312553",
";  c #382954",
":  c #33235C",
">  c #3A205D",
",  c #35295B",
"<  c #3B2F5F",
"1  c #271A60",
"2  c #2F2661",
"3  c #302764",
"4  c #431E5D",
"5  c #4F214F",
"6  c #4B2953",
"7  c #45255E",
"8  c #4A2559",
"9  c #442C5D",
"0  c #512C58",
"q  c #5A2A5C",
"w  c #7A284C",
"e  c #7D3656",
"r  c #73345C",
"t  c #7A345C",
"y  c #74385A",
"u  c #422261",
"i  c #472863",
"p  c #4D2F65",
"a  c #5C2566",
"s  c #502D63",
"d  c #5A2867",
"f  c #4D3265",
"g  c #523465",
"h  c #5C3A67",
"j  c #54346C",
"k  c #5E3A68",
"l  c #512D74",
"z  c #612C60",
"x  c #6B346A",
"c  c #68386A",
"v  c #753B69",
"b  c #7B3F68",
"n  c #6B3871",
"m  c #6B3374",
"M  c #793870",
"N  c #514050",
"B  c #76415F",
"V  c #764363",
"C  c #7A4266",
"Z  c #BC111A",
"A  c #851838",
"S  c #8A1B3B",
"D  c #9F1E3C",
"F  c #B7092C",
"G  c #BC0E25",
"H  c #A41529",
"J  c #BE1124",
"K  c #B21B25",
"L  c #B30E30",
"P  c #AE1333",
"I  c #A3143D",
"U  c #B21C37",
"Y  c #B21E38",
"T  c #852237",
"R  c #8F2C32",
"E  c #982630",
"W  c #902A35",
"Q  c #9B263C",
"!  c #95283B",
"~  c #A3262C",
"^  c #B42624",
"/  c #A12432",
"(  c #A7213C",
")  c #CD1306",
"_  c #D31609",
"`  c #D70E14",
"'  c #D9041A",
"]  c #D50B1B",
"[  c #C31713",
"{  c #CC1310",
"}  c #D91314",
"|  c #EC0401",
" . c #ED0A00",
".. c #F30100",
"X. c #FD0301",
"o. c #F20903",
"O. c #FE0B01",
"+. c #FC020E",
"@. c #F70E0A",
"#. c #FF0D0D",
"$. c #F21102",
"%. c #FF1300",
"&. c #FE1C03",
"*. c #FF1409",
"=. c #F9190D",
"-. c #EC0214",
";. c #EA0019",
":. c #F10217",
">. c #FD0012",
",. c #FE0D11",
"<. c #FF0A1B",
"1. c #C02219",
"2. c #C20722",
"3. c #C70827",
"4. c #CB0B24",
"5. c #D90D28",
"6. c #D30422",
"7. c #CA1826",
"8. c #C80531",
"9. c #F6132E",
"0. c #EB0032",
"q. c #D32622",
"w. c #D62832",
"e. c #FF2426",
"r. c #FD3C2D",
"t. c #E42E3B",
"y. c #F02236",
"u. c #FE440B",
"i. c #960C47",
"p. c #950948",
"a. c #941C4A",
"s. c #9C1557",
"d. c #A51F40",
"f. c #A21C4F",
"g. c #8B2A4D",
"h. c #97274B",
"j. c #9B2349",
"k. c #9C2545",
"l. c #893C4C",
"z. c #933140",
"x. c #92225A",
"c. c #81355C",
"v. c #8E335D",
"b. c #9D3453",
"n. c #A42144",
"m. c #B82541",
"M. c #AB215F",
"N. c #94266F",
"B. c #982D7D",
"V. c #98347A",
"C. c #A3336D",
"Z. c #A33572",
"A. c #D50A41",
"S. c #E53540",
"D. c #AE4566",
"F. c #911D80",
"G. c #923683",
"H. c #A32A91",
/* pixels */
"O O O O O O O O O O O O O O O O O O O O O O O O O O O O O o O O O O O O O O O O O O O O O O O O O O ",
"O O O O O O O O O O O O X O O O X   O O O O X O O O O O O O O O O o o O o O o O O O O O O O O O O O ",
"O O O O O O O O O O O O O O O O O O O O o O X O O O O O O O O O O O X O O O O O O O O O O O O O O O ",
"O O O O O O O O O   O O O O O O O O O O   O o X O O O O O O O O O O O O O O O O O O O O O O O O O O ",
"O O O O O O O O O O O O O O O O O & x M b V V V C v k k v b C b h f l l c c O o O O O O O O O O O O ",
"O O O O O O O O O O O O O O O O o $ s.f.! R R R Q k.g.g.h.k.k.k.l.w F.H.h.A O O O O O O O O O O O O ",
"O O O O O O O O O O O O O O O O y.#.X.X.X.O.X.O.X.X.X.O.X.X.X.O.X...,.e.&.O.& X O O O O O O O O O O ",
"O O O O O O O O O O O O O O O O -...X.X.X.X.O.X.X.X.X.X.X.X.X.X.O.X.X.X...O.2 O O O O O O O O O O O ",
"O O O O O O O O O X   X X O O g X.X._ 1.^ / E Q Q Q Y Y ( n.n.n.d.m.X...@.Z O O O O O O O O O O O O ",
"O O O O O O O O O X O O X X   8 X.O.{ ~ ! e y y y e v.v.c.t r r t v.#.X.o.w.O O O O O O O O O O O O ",
"O O O O O O O O O O O O   X Z.p.a.% + o o O O O O     O O O O O O O <.>.K 2 X o O O O O O O O O O O ",
"O O O O O O O O O O O O X + M.i.z & O O O O O O O O o O O X O O O O >...S : O O O O O O O O O O O O ",
"O   O O O O O O O O o O O O # i O O O O O O O O O O O O O O O O X ; X.X.% X O O O O O X O O O O O O ",
"O O O O O O O O O O O O O O i j O O O O O o X O O O O O O O O O   % X.,.$ O O O O O O O O O O O O O ",
"X O O O O O O O O O O O X O O O O O O O O O O o o O O X O O O O C.P } t.o o O O O O O O O O O O O O ",
"O O O O O O O O O O O O O O X O O O O O O O O o O O + O O O O O x.4.` S.O O O O O O O O O O O O O O ",
"O O O O O O O O O O O O O   O O O O O O O O O O O X O O O O O O X.X.8.: O o O O O O O O O O O O O O ",
"O O O O O O O O O O O O O O O O O O O O O O O O O O O O O O O O X.X.I 3 o O O O O O O O O O O O O O ",
"O O O O O O O O O O O O O O O O O O O O O O O O O O O X O O O q X.X.9 O O O o O O O O O O O O O O O ",
"O O O O O O O O O O O O O O O O O O O O O O O O O   X O O   O 5 X.X.9 O O O O X O O O O O O O O O O ",
"O O O X O   O O O O O O O O O O O O O O O O O O O O O O O O D.4.:.;.O O O O O O O O O O O O O O X O ",
"O O O O O O O O O O X O O O O O O O O O O O O O O O O O O O b.' -.9.O X o O O O O O O O O O O O O O ",
"O   O O O O O O O O O O O O O O O O O O O O O O O O O O X O %.X.] f O O O O O O O O O O O O O O O O ",
"O O O O O O O O O O O O O O O O O O O O O O O O O O O O O O ..X.G j O O O O O O O O O O O O O O O O ",
"O O O O O O O O O O O O O O O O O O O O O O O O O O O O O 7 X.X.6 O O O O O O O O X   O O O O O O   ",
"O O O O O O O O O O O O O O O O O O O O O O O O O o O O O i X.X.g O o O O O O O O O O O O O O O O O ",
"O O O O O O O O O O O O O O O O O O O O O O O O O O O O V.I _ [   O O O O O O O O O O O O O O O O O ",
"O O O O O O O O O   O O O O O O O O O O O O O O O O O o N.3.) q.O O O O O O O O O O O O O O O O O O ",
"O O O X O O O O O O O O O O O O O O O O O O O O O O X O <.+.K , X O O O O O O O O O O O O O O O O O ",
"O O O O O O O O O O O O O O O O O O O O O O O O O O O X +.+.T < O O O O O   O O O O O O O O O O O O ",
"O O   O O O O O O O O O O O O O O O O O O O O O O O O 1 X.X.6 o O O O O O O O O O O O O O O O O O O ",
"O O O O O O O O O O O O O O O O O O O O O O O O O O O O X.X.0 O O O X O O O O O O O O O O O O O O O ",
"O O O O O O O   X O O O O O O O O O O O O O O O O O g H  .| o O O O O O O O O O O O O O O O O O O O ",
"O O O O O O O O O O O O O O O O O O O O O O O O O O 9 7.=. .O o O O O O O O O O O O O O O O O O O O ",
"O O O O O O O O O O O O X O O O O O O O O O O O   X *.| 6.d O o O O O O O O O O O O O O O O O O O O ",
"O O O O O O O O O O O O O O O O O O O O O O O O O X #.*.F n O O O O O O O O O O O O O O O O O O O O ",
"O O O O O O O O O O O O O O O O O O O O O O O O X : $.u.: X O O O O O O O O O O O O O O O O O O O O ",
"O O O O O O O O O O O O O O O O O O O O O O O O O % $.&.# o O O O O O O O O O O O O X O O O O O O O ",
"O O O O O   X O O O O O O O O O O O O O O O O O & D r...1 o O O O O O O O O O O O O O O O O O O O O ",
"O O O O   + X O O O O O   O O O O O O O O O O O 2 J ..O.3 O O o O O O O O O O O O O O O O O O O O O ",
"O O O O O O   O O O O O O O O O O O O O O O O O &.o.5.a O O O O O O O O O O O O O O O O O O O O O O ",
"O O O O O O O O O O O O O O O O O O O o O O O   o.o.L m O O O O O O O O O O O O O O O O O O O O O O ",
"O O O O X O O O O O O O O O O O O O o O o O O = X.O.# O O O O O O O O O O O O O O O O O O O O O O O ",
"O O O O O O O O O O O O O X O O O O O O O O O = %.O.> O O O O O X O O O O O O O O O O O X O O O O O ",
"O O O O O O O O O O O O O O O O O o O O X O G.8.+.+.O O O O O O   O O O O O O O O O O O O O O O O O ",
"O O O O O O O O O O O O   O O O O O O O X + G.0...X.O O O O O + O O O O O O O O O O O O O O O O O O ",
"O O O O O O O O O O O O O O O O O O O O X X = N O O o O O   O O O O O O O X O O O O O O O O O O O O ",
"O O O O O O O O O O O O O O O O O O O O O X * 3 O O O O O O O O O O O O O X   O O O O O O O O O O O ",
"O O O O   O O O O O O O O X O O O O O O O O O O O O O O O O O O O O O O O O O O O O O O O O O O O O ",
"O O O O O O O O O O O O O O O O O O O O O O O O O O O O   O O O O O O O O O X O O O O O O O O O   O "
};
