/* XPM */
static char *_8280_406ee9e28509ffe6345368be2c06f725bf08ddcb120fa6ed27fb7558bae07096[] = {
/* columns rows colors chars-per-pixel */
"50 50 197 2 ",
"   c #54273E",
".  c #6E2131",
"X  c #623A32",
"o  c #19194F",
"O  c #1B1752",
"+  c #171A52",
"@  c #1A1952",
"#  c #271F50",
"$  c #251E59",
"%  c #202156",
"&  c #292057",
"*  c #26235B",
"=  c #2A245B",
"-  c #2E2A5D",
";  c #3A2453",
":  c #33245B",
">  c #38265A",
",  c #2C2663",
"<  c #3C2564",
"1  c #3A2C64",
"2  c #342863",
"3  c #3B3163",
"4  c #751847",
"5  c #791C4C",
"6  c #4F2E4D",
"7  c #56244E",
"8  c #5B3544",
"9  c #432C5E",
"0  c #4D2B5D",
"q  c #492957",
"w  c #592A58",
"e  c #48385D",
"r  c #48325D",
"t  c #593757",
"y  c #742C43",
"u  c #762247",
"i  c #72334E",
"p  c #622E5F",
"a  c #683A56",
"s  c #422E65",
"d  c #492964",
"f  c #522560",
"g  c #463365",
"h  c #493264",
"j  c #4A336C",
"k  c #42306A",
"l  c #59396C",
"z  c #563865",
"x  c #682268",
"c  c #693F67",
"v  c #63346C",
"b  c #6E356C",
"n  c #713767",
"m  c #73376B",
"M  c #6E3B73",
"N  c #783372",
"B  c #6B4252",
"V  c #794C46",
"C  c #594067",
"Z  c #6A4568",
"A  c #794D68",
"S  c #764679",
"D  c #9E1F19",
"F  c #BB1308",
"G  c #AD0716",
"H  c #BA0918",
"J  c #B81D1B",
"K  c #AC2E08",
"L  c #B42A0D",
"P  c #9C162F",
"I  c #8F1D3F",
"U  c #9F1936",
"Y  c #AC0F2C",
"T  c #B90822",
"R  c #A31828",
"E  c #BE122A",
"W  c #A30535",
"Q  c #B50E32",
"!  c #AC163C",
"~  c #A81C34",
"^  c #B11434",
"/  c #802127",
"(  c #8D2838",
")  c #942233",
"_  c #9C3330",
"`  c #B0202A",
"'  c #B72929",
"]  c #AD3B3C",
"[  c #D50E03",
"{  c #D80706",
"}  c #C81C0B",
"|  c #CA0719",
" . c #DC0D1A",
".. c #D60617",
"X. c #CD1312",
"o. c #D3141F",
"O. c #E30201",
"+. c #EC0303",
"@. c #E50D01",
"#. c #EC040B",
"$. c #E60907",
"%. c #F50101",
"&. c #FC0301",
"*. c #F40B01",
"=. c #FE0A00",
"-. c #F4020B",
";. c #FE010A",
":. c #F10A0A",
">. c #FF0A0F",
",. c #EF1901",
"<. c #E31007",
"1. c #FD1201",
"2. c #F01A01",
"3. c #ED0116",
"4. c #E50817",
"5. c #EE011C",
"6. c #E30416",
"7. c #F30113",
"8. c #FB0213",
"9. c #FD0B14",
"0. c #F60019",
"q. c #FD011B",
"w. c #FF081A",
"e. c #FF1E18",
"r. c #F51417",
"t. c #D62101",
"y. c #DD2003",
"u. c #C2381C",
"i. c #E72604",
"p. c #C20929",
"a. c #DC0B21",
"s. c #D50526",
"d. c #CC1526",
"f. c #D3142B",
"g. c #D61624",
"h. c #C20337",
"j. c #DB0A38",
"k. c #DF1230",
"l. c #D01530",
"z. c #CB1637",
"x. c #F50124",
"c. c #FD0223",
"v. c #F5032B",
"b. c #F20E2F",
"n. c #E4102B",
"m. c #EA1F25",
"M. c #FC1C26",
"N. c #E90A36",
"B. c #F90135",
"V. c #EB1038",
"C. c #E91835",
"Z. c #C82832",
"A. c #D8223D",
"S. c #C7323C",
"D. c #EC2937",
"F. c #E0500A",
"G. c #E24630",
"H. c #8C1245",
"J. c #9D1A4A",
"K. c #AF1746",
"L. c #A41A48",
"P. c #B81648",
"I. c #B61A45",
"U. c #A71D50",
"Y. c #933943",
"T. c #86275C",
"R. c #9E2E52",
"E. c #863C57",
"W. c #AF244E",
"Q. c #A22551",
"!. c #BA2451",
"~. c #A6385D",
"^. c #BF3951",
"/. c #843869",
"(. c #9D336A",
"). c #AC3464",
"_. c #C01849",
"`. c #DB1C5F",
"'. c #E20441",
"]. c #FC0040",
"[. c #E11D46",
"{. c #C72549",
"}. c #CA3847",
"|. c #C62557",
" X c #CF3559",
".X c #D03D59",
"XX c #C40562",
"oX c #FF2677",
"OX c #A4434E",
"+X c #B4454E",
"@X c #9B4B68",
"#X c #96506C",
"$X c #A84E6A",
"%X c #B75466",
"&X c #DE4245",
"*X c #EA4860",
"=X c #AC2A80",
/* pixels */
"@ @ @ @ @ @ @ @ @ @ @ @ @ @ @ @ @ @ O @ o @ @ @ @ O @ @ @ @ @ @ O @ + @ + @ @ @ @ @ @ @ @ @ @ @ @ @ ",
"@ @ @ @ @ @ @ @ @ @ @ @ @ @ @ @ O o @ o @ @ @ @ @ @ @ @ @ @ @ @ @ + @ @ @ @ @ @ @ @ @ @ @ @ @ o @ @ ",
"@ @ @ @ @ @ @ @ O @ @ @ @ @ @ @ @ @ @ @ @ @ O % @ @ @ @ @ @ @ @ + @ @ @ @ @ + @ @ @ @ @ @ @ @ @ O @ ",
"@ @ @ @ @ @ @ @ @ @ @ @ @ @ @ @ o @ @ @ @ @ o @ @ @ @ @ @ @ @ @ @ O @ @ @ @ @ @ @ @ @ @ @ @ @ @ @ @ ",
"@ @ @ @ @ @ @ @ @ @ @ @ @ @ @ @ @ @ O @ 1 /.] ' ^ ! J.J.z.A.).M g O @ @ @ + @ @ @ @ @ @ @ @ @ @ @ @ ",
"o @ @ @ @ @ @ @ @ @ @ @ @ @ @ @ @ @ @ O = W./ R P L.L.U.Q Q H.Q.- O @ O @ @ @ @ @ @ @ @ @ @ @ @ @ @ ",
"@ @ @ @ @ @ @ @ @ @ @ @ @ @ @ @ @ @ +XC.x.B.$ @ O O @ @ @ @ 7 X.O.e.e @ @ @ @ @ @ @ @ @ @ @ @ @ @ @ ",
"@ @ O @ @ @ @ @ @ @ @ @ @ @ @ @ @ @ ) H v.`.- O @ O + o @ + Z S.<.O.; @ @ @ @ @ @ @ @ @ @ @ @ @ @ @ ",
"@ @ @ @ @ @ @ @ @ @ @ @ @ @ @ @ V t.&.&.@ + @ @ O @ @ @ @ @ @ @ ( @.&.&.% O @ @ @ @ @ @ @ @ @ @ @ @ ",
"@ @ @ @ @ @ @ @ @ @ @ @ @ @ @ @ X t.&.&.+ @ @ O @ @ @ @ @ @ @ @ OX{ &.&.$ @ @ @ @ @ @ @ @ @ @ @ @ @ ",
"@ @ @ @ @ @ @ @ @ O o @ @ @ @ 2 8.q.N.x O @ @ @ @ @ @ @ @ @ @ @ @ ; =.=.. = @ @ @ @ @ @ @ @ O @ @ @ ",
"@ @ @ @ @ O @ @ O @ O @ @ @ @ 2 q.8.j.N @ @ @ @ @ @ @ @ @ @ @ @ + ; =.=.D = O @ @ @ @ @ @ @ @ @ @ @ ",
"@ O @ @ o O @ @ @ @ @ + @ @ @ u &.&.*.}.@ @ @ @ @ @ @ @ @ @ @ @ @ 2 =.&. .h @ @ @ @ @ @ @ @ @ @ @ @ ",
"@ @ @ @ @ @ @ @ @ @ @ @ @ @ % I.&.=.1.R @ @ @ O @ @ @ @ @ O @ @ @ > &.&.g.r @ @ @ o O @ @ @ o @ @ @ ",
"@ @ @ @ @ @ @ @ @ @ o @ @ @ j j.0.&.1.[ = @ O @ @ @ @ @ @ @ @ @ % 7 &.=.I.$ @ @ @ @ @ @ @ @ @ @ @ @ ",
"@ @ @ @ @ @ @ @ O @ @ @ @ @ j ! c.%.=.2.$ @ o @ @ @ @ @ @ @ o @ o I &.=.4 = @ O @ @ @ @ @ @ @ @ @ @ ",
"@ @ @ @ @ @ @ @ @ o @ @ @ @ @ @ *.&.&.=.X./.O O o O O @ @ @ @ @ Q.b.%.&.= + @ @ @ @ @ @ @ @ @ @ @ @ ",
"@ @ @ @ @ @ @ O @ @ @ @ @ @ @ @ *.%.1.%.[ 5 O o @ O @ @ O @ @ @ J.O.%.e.2 @ @ @ @ @ @ @ @ @ @ @ @ @ ",
"@ @ @ @ @ @ @ @ @ @ @ @ @ @ @ @ . V.B.].B...[ G.@ @ o @ @ @ l {.3.7.; @ + + o @ @ @ @ @ @ @ @ @ @ @ ",
"@ @ @ @ @ @ @ @ O @ @ @ @ @ @ @ $XQ '.oXv.3.2.} o @ @ @ @ O d s.0.b.h @ @ @ @ @ @ @ @ @ @ @ @ @ @ @ ",
"@ @ o @ @ @ @ @ @ @ @ @ @ O @ @ @ @ K 2.+.+.9.{ &.m.@ @ j T.;.%.t O @ @ @ @ @ @ @ @ @ @ @ @ @ @ @ @ ",
"@ @ @ @ @ @ @ o @ @ @ @ @ @ @ @ @ @ F.<.9.>.;.>.&.;.o @ 1 5 &.D.Z @ @ + @ @ @ @ @ @ @ @ @ @ @ @ @ @ ",
"@ @ @ O @ @ @ @ @ @ @ @ @ @ @ @ @ @ + @ H :.;.&.r.{ &.;. .P O O + @ @ + @ @ @ @ @ @ @ @ o @ @ @ @ @ ",
"@ @ @ @ @ @ @ @ @ @ @ @ @ @ o @ @ @ @ @ &X+.&.;.:.+.&.&.$. X@ @ @ @ @ @ @ @ @ @ @ @ @ @ @ @ @ @ @ @ ",
"@ @ @ @ @ @ @ @ @ @ @ @ @ @ @ @ @ O @ @ @ @ q.q.q.-.&.&.&.7.R.k O o @ O @ @ O @ @ @ @ @ @ @ @ @ @ @ ",
"@ @ @ @ @ @ @ @ @ @ @ @ @ @ @ @ @ @ @ % @ @ C.c.8.8.=.&.%.q.{.: O O O @ + @ @ @ @ @ @ @ O @ @ @ @ @ ",
"@ @ @ @ O @ @ o O @ @ @ @ @ @ @ @ @ @ @ %XZ.U ~ #XE.&.&.*.*.&.%.A.l O @ @ @ @ @ @ @ @ @ @ @ @ @ @ O ",
"@ @ @ @ @ @ @ @ @ @ @ @ @ @ @ @ @ O @ @ S.G ~ @Xz 9 =.&.*.*.&.&.a.0 + + @ @ @ + @ @ @ @ @ @ @ @ @ @ ",
"@ @ @ @ @ @ @ @ @ @ @ @ @ @ @ @ O @ z ( Q T O @ @ @ @ ; &.=.r.$.&.&.P.v o @ O @ @ @ @ @ @ @ @ @ @ @ ",
"@ @ @ @ @ @ @ @ @ @ @ o @ @ @ @ @ @ 9 *XY &Xo O @ @ O h 1.%.+.+.&.&.N.f @ @ O @ @ @ @ @ @ @ @ @ @ @ ",
"@ @ @ @ @ @ @ @ @ @ @ @ @ @ @ @ l J %.=.* @ @ @ @ @ @ @ @ @ -.&.;.=.&.*.T.= @ O @ @ o @ @ @ @ @ @ @ ",
"o @ @ @ @ @ @ @ @ @ @ @ @ @ @ o q } &.%.2 @ @ @ @ @ @ @ @ = M.%.%.&.&.&.!., @ @ O @ @ @ @ @ @ @ @ @ ",
"# @ @ @ @ @ @ o O @ @ @ @ + @ B &.&.@.L @ + @ @ O @ o @ @ @ @ 0 [ 1.&.w.3.!.@ + @ @ @ @ @ @ @ @ @ @ ",
"@ @ @ @ @ @ @ @ @ O + @ @ @ @ 8 &.&.*.u.@ @ + @ O + @ @ @ @ @ l i.*.&.9.0.K.+ O @ @ @ @ @ @ @ @ @ @ ",
"@ @ @ @ @ @ @ @ @ @ @ @ @ @ g Y ;.;.g.r + O @ @ @ @ O @ @ @ @ @ O 7 &.&.&.8.k @ O @ @ @ @ @ @ @ @ @ ",
"@ @ @ @ @ @ @ @ @ @ + @ @ + g | 8.%.o.e @ @ @ @ @ @ @ @ @ @ @ @ O p =.&.&.8.< O @ @ @ @ @ @ @ @ @ @ ",
"@ @ @ @ O @ @ @ @ o @ O @ @ (.4.=.%.d.3 @ @ O @ @ @ @ @ @ + @ O @ o n.#.;.8.> o @ @ @ @ @ @ @ @ @ @ ",
"@ @ @ @ @ @ @ @ @ @ O @ + + (.4.%.%.d.k @ @ @ o @ @ @ @ @ @ @ @ @ O k.-.;.9.s @ @ @ @ @ @ @ O @ @ O ",
"@ @ @ @ @ @ @ @ O @ o @ @ @ 1 f.&.;. .z @ @ @ O @ @ @ @ @ @ @ @ o @ y n.q.q.@ O @ @ @ @ @ @ @ @ @ @ ",
"@ @ @ @ @ @ @ @ @ @ @ @ @ O k ^ &.&...z @ @ @ @ + @ @ @ @ @ @ @ @ @ y n.q.0.O @ @ @ @ @ @ @ @ @ @ @ ",
"@ @ @ @ @ @ @ @ @ @ @ @ @ @ @ = 8.;.O.y.@ @ @ @ @ @ @ @ @ @ + O @ + =.=.F > @ + @ @ @ @ @ @ @ @ @ @ ",
"O @ @ @ @ @ @ @ @ @ @ @ @ @ @ , -.&.*.y.@ @ @ o @ + @ + @ @ + + @ @ %.&.` h @ @ @ @ @ @ @ @ @ @ @ @ ",
"@ @ @ @ @ @ @ @ @ @ @ @ @ @ @ o % _ &.=.f.b O @ @ @ + @ + @ O O v P.5.v.@ @ @ @ @ @ @ o @ @ @ @ @ @ ",
"@ @ @ @ @ @ @ @ @ @ @ @ @ @ @ @ * i ;.=...w @ O @ @ O @ @ @ O O d W V.[.@ @ @ @ @ @ @ O @ @ @ @ @ @ ",
"@ @ @ @ @ @ @ @ @ @ @ @ @ @ @ @ @ @ @ 6 0.-.N. X$X#XS S A A }.l.h.XXO O @ @ @ @ @ @ @ @ @ @ @ @ @ @ ",
"@ @ @ @ @ @ @ @ @ @ @ @ @ @ @ @ @ @ @ t [.v.s.^ u ] ).~.Y.8 R p.|.=X@ O @ @ @ @ @ @ @ @ @ @ @ @ @ @ ",
"@ @ @ @ @ @ @ @ @ @ @ @ @ @ @ @ @ + @ @ @ @ + @ # a b n Z @ @ @ @ @ O @ @ @ @ @ @ @ @ @ @ @ @ @ @ @ ",
"@ @ @ @ @ @ @ @ @ @ @ @ @ @ @ @ @ @ @ @ O + @ @ 2 3 1 3 = % @ O @ @ @ @ @ @ @ @ @ @ @ o O @ @ @ @ @ ",
"@ @ @ @ @ @ @ @ @ @ @ @ @ @ @ @ @ @ @ @ @ @ @ @ @ O @ @ @ @ @ o @ @ @ @ @ @ @ @ @ @ @ @ @ @ @ @ @ @ ",
"@ @ @ @ @ @ @ O @ @ @ @ @ o @ @ @ @ @ @ @ @ @ @ @ @ @ @ @ @ @ @ @ @ @ @ @ @ @ @ @ @ @ @ @ @ @ @ @ @ "
};
