/* XPM */
static char *fb087be968eb47138fb64bbfdacd4ae5kJ86FdPyfQnCiY2o[] = {
/* columns rows colors chars-per-pixel */
"50 50 208 2 ",
"   c #4E143D",
".  c #51133D",
"X  c #671233",
"o  c #711031",
"O  c #701B3C",
"+  c #613B32",
"@  c #1D174F",
"#  c #19194F",
"$  c #1B1752",
"%  c #171A52",
"&  c #1A1952",
"*  c #1D1958",
"=  c #171B5B",
"-  c #20174E",
";  c #2C164E",
":  c #25184E",
">  c #2C184C",
",  c #3D1546",
"<  c #331749",
"1  c #391A49",
"2  c #211851",
"3  c #251E59",
"4  c #281E5A",
"5  c #1E2154",
"6  c #3C224F",
"7  c #26245C",
"8  c #2B235C",
"9  c #232456",
"0  c #3D2354",
"q  c #39245C",
"w  c #342A5E",
"e  c #37265C",
"r  c #2B2563",
"t  c #3C2564",
"y  c #352963",
"u  c #431445",
"i  c #4B1D4C",
"p  c #621E45",
"a  c #791C4D",
"s  c #741945",
"d  c #6B1C53",
"f  c #4E2F4E",
"g  c #55264C",
"h  c #58244B",
"j  c #5B3446",
"k  c #422C5D",
"l  c #4D2C5B",
"z  c #4A2A56",
"x  c #572250",
"c  c #572B5A",
"v  c #4A385E",
"b  c #593757",
"n  c #7E2140",
"m  c #742C43",
"M  c #74214D",
"N  c #73334D",
"B  c #622E5F",
"V  c #772D52",
"C  c #422E64",
"Z  c #42296A",
"A  c #512560",
"S  c #433363",
"D  c #4C3164",
"F  c #45336C",
"G  c #4B326C",
"H  c #59396C",
"J  c #583665",
"K  c #682268",
"L  c #62336C",
"P  c #67386F",
"I  c #6D3966",
"U  c #773271",
"Y  c #6B4252",
"T  c #784B45",
"R  c #574168",
"E  c #6D4568",
"W  c #BB130A",
"Q  c #BA0918",
"!  c #BD1A1B",
"~  c #AC2E08",
"^  c #9B0C27",
"/  c #8C1028",
"(  c #9A1820",
")  c #9B152E",
"_  c #821B38",
"`  c #941936",
"'  c #AC0F2C",
"]  c #B21828",
"[  c #A80532",
"{  c #A01937",
"}  c #AF1539",
"|  c #B01235",
" . c #942333",
".. c #902B3D",
"X. c #9E3230",
"o. c #B0202A",
"O. c #B12524",
"+. c #BB2234",
"@. c #B83932",
"#. c #D50E03",
"$. c #D70806",
"%. c #CF1C08",
"&. c #C41E06",
"*. c #D91B0A",
"=. c #C30B1A",
"-. c #CB0718",
";. c #DA0916",
":. c #DA0C1C",
">. c #D20916",
",. c #D31317",
"<. c #CB070B",
"1. c #E40302",
"2. c #ED0303",
"3. c #EF0A01",
"4. c #E0030B",
"5. c #EC060A",
"6. c #E70809",
"7. c #E60C05",
"8. c #F50201",
"9. c #FC0302",
"0. c #F40C01",
"q. c #FD0A01",
"w. c #F4020B",
"e. c #FD010A",
"r. c #F10A0A",
"t. c #FF090C",
"y. c #EF1400",
"u. c #EF1901",
"i. c #E31007",
"p. c #FD1201",
"a. c #F61908",
"s. c #EC0314",
"d. c #E60917",
"f. c #ED011C",
"g. c #E80916",
"h. c #F40112",
"j. c #FC0214",
"k. c #F10F10",
"l. c #FD0B14",
"z. c #F4031B",
"x. c #FD011B",
"c. c #FF081B",
"v. c #EE101D",
"b. c #FF1E18",
"n. c #F4121E",
"m. c #D62102",
"M. c #CC301A",
"N. c #E72604",
"B. c #C00928",
"V. c #DC0B20",
"C. c #D40925",
"Z. c #CB1323",
"A. c #C31421",
"S. c #D3142A",
"D. c #DE132B",
"F. c #DC053C",
"G. c #DB0C38",
"H. c #C91C3B",
"J. c #D41F30",
"K. c #E90F2A",
"L. c #F40427",
"P. c #FE0224",
"I. c #F40229",
"U. c #F00F2F",
"Y. c #EC1C24",
"T. c #E4102B",
"R. c #E81420",
"E. c #F91624",
"W. c #FA0235",
"Q. c #E91838",
"!. c #EB1534",
"~. c #E5083B",
"^. c #D7222B",
"/. c #CE2630",
"(. c #CC2738",
"). c #D5293A",
"_. c #C82624",
"`. c #F52026",
"'. c #ED2937",
"]. c #E0500A",
"[. c #E24630",
"{. c #831D44",
"}. c #9B1D4C",
"|. c #AE1846",
" X c #B71648",
".X c #B61A46",
"XX c #8F374D",
"oX c #88295B",
"OX c #9D2D51",
"+X c #AA3F47",
"@X c #A32652",
"#X c #BA2451",
"$X c #BF3951",
"%X c #873767",
"&X c #9D336A",
"*X c #B9236D",
"=X c #C01849",
"-X c #E20441",
";X c #FC0040",
":X c #E21A46",
">X c #C72548",
",X c #CD3A42",
"<X c #C22955",
"1X c #FF2778",
"2X c #B3454E",
"3X c #9C4E64",
"4X c #B65463",
"5X c #DE4245",
/* pixels */
"& & & & & & & & & & & & & & & & & & & $ & & & 2 & & % $ & % & % % & $ % & $ & % & & & & & & $ & # & ",
"& & & & & & & & & & & & & & & & $ @ % # % & % % & & $ $ & % 2 & & # & & & & & & & & & & & & & & & & ",
"& & & & & & & & & & & & & & & & & # % & & & $ # & % & & & & % & $ & & & & % & & & & & & & & & & & & ",
"& & & & & & & & & & & & & & & & # & $ # $ & % # 2 ; ; > < > : 2 % % & & % $ # & & & & & & & & & & & ",
"& & & & & & $ & & & & & & & & & $ & $ % y %X@._.Z.-.C.:.g.v.(.oXD & & $ @ % & & & & & & & & & & & & ",
"& & & & & & & & & & & & & & & & & & $ & 0 =X>.r.w.r.g.g.s.5.5.z._ ; * * $ % & % & & & & & & & & & & ",
"$ & & & & & & & & & & & & & & & & & 2X!.z.e.4.^ X   u u , u ` 0.9.a.l & % & & & & & & & & & & & & & ",
"& & & & & # & & & & & & & & & & % &  .Q L.:Xp < 2 & # # @ # I /.8.9.O 2 % 2 & % & & & & & & & & & & ",
"& & & & & & & & & & & & & & & & T m.8.q.& & & $ & & & & & & & $ ] 8.q.9.9 $ # & & & & & & & & $ & & ",
"& & & & & & & & & & & $ & & & & + m.q.9.& & % $ & & & & & & $ $ 2X1.9.9.1 $ % * & & & & @ & & & & & ",
"& & & & & & & & % $ & & & & # y j.x.~.K 2 & 2 % & & & & & & $ & & i 9.9.( w & & & & & & & & & & & & ",
"& & # & & & & & $ $ $ & & $ & e x.j.~.U $ % & % & & & & & % & & & 0 q.q.<.0 & & & & & & & & & & & $ ",
"& & & & & & & & & & % % $ & 5 M q.9.8.,X$ & & $ & & & & & & & & 2 y q.8.:.c 5 % & & & & & & & & & & ",
"& & & & & & & $ % & $ & & & 5 .X9.q.0.o.$ & $ $ & & & & & & & & % t q.8.D.D & - & & @ & & & & & & & ",
"$ & & & & & & # & 2 % % % & G G.z.9.p.#.7 & & & & & & & & & & & 5 g 8.q..X9 % & & & % & & & & % & & ",
"& & & & & & & & $ % & & & & G } P.8.0.y.8 & & % & & & & & & & & & ` 9.p.s 4 & & & & & & & & & @ & & ",
"& & & & & & & & & & & & & & $ & 8.q.8.q.,.oX# % % $ $ & & & & & @Xn.8.9.8 # % & & & & & & & & & & & ",
"& & & & & & & & & & & # & & & & 0.8.p.8.i.a % % % & & % 2 & & & }.4.8.b.r % & % & & & & & & & & & & ",
"& & # & & & & & & & & & & & & & m Q.W.;XW.>.$.[.% & # & $ $ H <Xs.z.0 % % % @ # & & & & & & & & & & ",
"& & $ & & & & & & $ & & & & & & 3XQ -X1XI.s.u.&.& & & & $ $ l C.h.U.D # & 2 % 5 & & & & & & & & & & ",
"& & & & & & & & & & & & & & & & * $ ~ u.2.2.l.$.9.Y.# $ F oXj.8.c % % $ & & % & & & & & & & & & & & ",
"& & & & & & & & & & & & & & & & & $ ].i.l.e.e.t.8.9.# & t a 9.'.E & & & & # & & & & & & & & & & & & ",
"& & & $ & & & & & & & & & & & & & & % & Q r.e.e.l.$.9.t.;.) $ $ & % & % & & & & $ & & & & & & & & & ",
"& & & & $ & # & & & & & & # & & & & & & 5X3.9.e.r.6.9.9.r.$X$ & & & & & & & % & % $ & & @ % & & & & ",
"& # & & & & & & & & & & & & $ & & & $ % & & P.x.x.w.9.q.9.z.OXt $ % # $ $ & & & & & & & & & & & & & ",
"& & & & $ & & & & & & & & & & & & & $ & % & !.j.e.j.q.9.8.x.>Xe $ * % $ % & & & & & & & & & & & & & ",
"& & & & & & & & & & & & & & & & & $ % & 4X/.A.8.(.XX9.q.q.0.q.8.).L $ $ $ & % & & & & & & & @ & & % ",
"& & & & & & & & # & & & & & & & % & % $ ).<.6.v.V k q.q.0.0.9.9.V.z & $ & $ & & % @ & & & & & & & @ ",
"& & & & # & & & & & & & & & & & @ # H ) ;.w.=.. 2 % & 0 8.q.k.6.8.9.=XL # # & & & & & & & & & & & & ",
"& & & & & & & & & & & & & & & # 5 & g `.8.Y.. $ % # % J p.8.2.r.9.9.~.l % % 2 % & & & & & & & & & & ",
"& & & & & & $ & & & & & & & & & H ! q.9.) < 2 & & % % & & & w.9.e.q.q.9.oX7 % 2 & & & & & & & & & & ",
"& & & & & & & & & & & & & & & % z *.9.9.g * & & & & & % & 7 E.8.8.8.8.9.<Xr % $ & & & & & & & & & & ",
"# & & & & & & & $ & & % & & & Y 9.9.9.%.; % & % $ & $ & $ & & l #.p.9.c.f.#X& % & & & & & & & & & & ",
"$ & & & & & & # # $ % & & & & j 9.9.8.M.& # & $ $ % & % & & & H N.p.9.j.h.|.$ $ & & & & & & & # & & ",
"& & & & & & & & & & % & & @ F ' e.e.g.b # $ & % & & $ & & & & & $ x q.9.9.z.C & & & & & & & & & @ & ",
"& & & & & $ & & & & & & % % S =.e.e.,.v & & & % & & & & & & & % & B q.9.9.j.Z % & & $ & & & & & & & ",
"& & # & & & & & $ % & & % & &Xd.9.8.Z.t & & & & & % % & & & $ $ & # T.h.e.l.e $ & & & # $ & & & & & ",
"& & & $ & & & & & & $ & % & &Xd.0.9.Z.S & & & # & & & & 5 & & % & $ T.h.e.j.k & & $ & & & & & & & & ",
"& & & & & & & & $ & & & & & C S.9.e.V.J * & # & & & 2 & & $ & 2 # & m V.x.P.$ $ & & & & & & & & & & ",
"& & & & & & & & & & & & & & C | 8.9.:.c & $ $ % % & & % & $ % % & & m T.x.h.$ % & & & & & & & & & & ",
"& & & & & & & & & & & & % & & 8 j.e.1.*.# # & $ & & & & & & & & & & q.q.W e @ $ & & & & & & # $ & & ",
"& & $ & & & & & & & & & & & & r w.e.3.N.& & $ # & & & & & % 5 & $ # 8.8.O.D % % & & & & & & & & & & ",
"& & & & & & & & & & & & & & & & 5 X.9.q.S.U $ # & & & % % $ % % P  XL.I.% & # & & & & & & & & & & & ",
"& & & & & & & & & & & & & & & & 7 N q.q.>.c : < 2 2 & $ & $ 2 > d [ Q.:X% & & % & & & & & & & & & & ",
"& & & & & $ & & * & & & & & & & 2 % 5 f z.s.f.E.^.+.` {.O ..^.g.w.-X@ % % & @ % & & & & & & & & & & ",
"& & & & & & & & & & & & & & & & & & $ b :XL.w.9.e.q.9.e.9.2.t.w.K.*X# # $ & = $ & & & & & & & & & & ",
"& & & & & & & & & & & & & & & & & % & & $ @ u o / ] A.>.;.-.^ . > $ & $ & & & & & & & # & & & & & & ",
"& & & & & & & & & & & & & & & & & & & % & # % $ $ ; > , u , : # $ & & & & & & $ & & & & & $ & & & & ",
"& & & & & # & & & & & & & & & & & & & & & # & & $ & & & & & & & % & & & @ & & & & & & & & & & $ & & ",
"$ & & & & & & & & & & & $ & & & & & & & & & & & & & & & & & & & & & & & % & & & & & & & & & & & % @ "
};
