/* XPM */
static char *_8827_db0c6793c107ed2b393bcce2d6e3e1f181b90338022d022666df4a57f29578b4[] = {
/* columns rows colors chars-per-pixel */
"50 50 187 2 ",
"   c #632D3B",
".  c #1C174F",
"X  c #171A4F",
"o  c #1A194F",
"O  c #1B1753",
"+  c #171A52",
"@  c #1A1952",
"#  c #281E53",
"$  c #231F58",
"%  c #271B58",
"&  c #3C1F59",
"*  c #371D56",
"=  c #2B2255",
"-  c #232159",
";  c #2C255C",
":  c #2A2658",
">  c #382656",
",  c #34235D",
"<  c #3C235B",
"1  c #322A5E",
"2  c #392B5B",
"3  c #2E2464",
"4  c #342461",
"5  c #342A62",
"6  c #3C2C62",
"7  c #3B2762",
"8  c #401F4E",
"9  c #5F1842",
"0  c #6B1748",
"q  c #6D1B4B",
"w  c #7C1D47",
"e  c #43294C",
"r  c #49234C",
"t  c #582C47",
"y  c #46245A",
"u  c #4C245A",
"i  c #482A5C",
"p  c #5C2B5D",
"a  c #582957",
"s  c #41305D",
"d  c #4B3156",
"f  c #5A305E",
"g  c #61284B",
"h  c #6D2356",
"j  c #722A57",
"k  c #613157",
"l  c #4C1D61",
"z  c #7C1C63",
"x  c #442B62",
"c  c #4A2E68",
"v  c #4D2B67",
"b  c #502F64",
"n  c #5B2C60",
"m  c #4E3161",
"M  c #473368",
"N  c #48376B",
"B  c #433364",
"V  c #503268",
"C  c #533966",
"Z  c #5D2F70",
"A  c #5D3071",
"S  c #6F3F67",
"D  c #55425C",
"F  c #554A5B",
"G  c #7F4655",
"H  c #7F4867",
"J  c #666E79",
"K  c #B9071F",
"L  c #BB1414",
"P  c #B7111D",
"I  c #B90B0A",
"U  c #8F193C",
"Y  c #851B32",
"T  c #991930",
"R  c #B1052B",
"E  c #A71A26",
"W  c #BC1B23",
"Q  c #A61131",
"!  c #A0113D",
"~  c #AA1938",
"^  c #BF1633",
"/  c #BA1138",
"(  c #A02134",
")  c #BA2638",
"_  c #DF030E",
"`  c #D10A03",
"'  c #C7001D",
"]  c #D10111",
"[  c #D7061C",
"{  c #DA071A",
"}  c #C81F1C",
"|  c #C71C16",
" . c #D21D16",
".. c #E00403",
"X. c #EC0302",
"o. c #ED0D01",
"O. c #E4030B",
"+. c #ED030A",
"@. c #E60B06",
"#. c #F40100",
"$. c #FD0301",
"%. c #F30D02",
"&. c #FE0B01",
"*. c #F2040D",
"=. c #FD020C",
"-. c #F20C0B",
";. c #ED1200",
":. c #FD1102",
">. c #FB1900",
",. c #FC180F",
"<. c #F71408",
"1. c #EC001D",
"2. c #E30A12",
"3. c #F40115",
"4. c #FD0013",
"5. c #FD011B",
"6. c #F60B1B",
"7. c #FE0D1B",
"8. c #FD0C13",
"9. c #E21319",
"0. c #FE1117",
"q. c #FF1D17",
"w. c #FE111B",
"e. c #F81718",
"r. c #C10425",
"t. c #D70520",
"y. c #D90228",
"u. c #C6132A",
"i. c #C51A2C",
"p. c #D61021",
"a. c #D4142D",
"s. c #C60A34",
"d. c #D20F37",
"f. c #DF0D32",
"g. c #D90739",
"h. c #C81837",
"j. c #E40124",
"k. c #E70F26",
"l. c #E1022F",
"z. c #FE0125",
"x. c #FD0C23",
"c. c #E01626",
"v. c #EF1223",
"b. c #FF1B29",
"n. c #E90238",
"m. c #FE0032",
"M. c #E5103C",
"N. c #E81535",
"B. c #F11032",
"V. c #C1262C",
"C. c #DA273C",
"Z. c #ED2027",
"A. c #FF2529",
"S. c #ED3327",
"D. c #E5253E",
"F. c #FE2435",
"G. c #E33B3A",
"H. c #E6433E",
"J. c #9A0B41",
"K. c #8C1340",
"L. c #851B4B",
"P. c #901146",
"I. c #9B1446",
"U. c #961E41",
"Y. c #9A184B",
"T. c #971C58",
"R. c #A91744",
"E. c #83214A",
"W. c #922041",
"Q. c #8F2055",
"!. c #B0394D",
"~. c #A43852",
"^. c #AC355B",
"/. c #BF375F",
"(. c #802067",
"). c #AA2F65",
"_. c #B73166",
"`. c #CC0140",
"'. c #CD0C43",
"]. c #D41751",
"[. c #FE1C42",
"{. c #C82246",
"}. c #C92C4B",
"|. c #D8214F",
" X c #C02D5A",
".X c #D33651",
"XX c #924565",
/* pixels */
"@ @ @ @ @ @ @ @ @ @ @ @ @ o @ @ @ @ o @ @ @ @ @ @ @ @ @ @ @ @ @ @ + @ O @ @ @ O @ @ @ @ @ O @ @ o @ ",
"@ @ @ @ @ @ @ @ @ @ @ @ @ @ @ @ @ @ @ @ @ @ @ @ @ @ @ @ @ @ @ @ @ @ @ o @ @ + @ @ @ @ @ @ @ @ @ @ @ ",
"@ @ @ @ @ @ @ @ @ @ @ @ @ @ @ @ @ + @ @ @ @ @ @ @ + @ @ @ O @ $ @ @ @ @ @ @ O @ @ @ @ @ @ @ @ @ @ @ ",
"@ @ @ @ @ @ @ @ @ @ @ @ @ @ @ @ @ @ @ @ @ @ @ @ + + @ O O @ @ @ @ + @ @ @ @ @ O @ @ @ @ @ @ @ @ @ @ ",
"@ @ @ @ @ @ @ @ @ @ @ @ @ @ @ @ @ @ @ O @ C !.) I.J.L  .S.H.5 @ O @ @ O @ @ + @ @ @ @ @ @ @ @ @ @ @ ",
"@ . @ @ @ @ @ @ @ @ @ @ @ @ @ @ @ @ @ @ o @ Y T T.Y.W L I ` % O O @ @ @ @ @ @ O @ @ @ @ @ @ @ @ @ @ ",
"@ @ @ @ @ @ @ @ @ @ @ @ @ @ @ @ @ @ /.N.O.R . . @ @ @ @ = i.&.&.{.b @ @ X @ @ @ @ @ @ @ @ X @ @ @ @ ",
"@ @ @ @ @ @ @ @ @ @ @ @ @ @ @ @ @ @ / r.c.}.O O @ X @ X 1 ~.:.#.r.i @ @ @ @ @ @ @ @ @ @ @ O @ @ @ @ ",
"@ @ @ @ @ @ @ @ . @ @ @ @ @ @ @ b R.&.#.@ @ @ @ @ o @ @ @ @ 3 s.$.&.Q N @ @ @ @ O o @ @ @ @ @ @ @ @ ",
"@ @ @ @ @ @ @ @ @ + @ @ @ X @ @ l '.$.e.+ @ @ @ @ @ @ @ @ @ 3 T.$.$.a.< @ @ @ @ @ @ @ @ @ @ @ @ @ @ ",
"@ @ @ @ @ @ @ @ @ @ @ @ @ @ @ n -.A.~ @ @ @ @ @ @ @ @ o @ O O O $.$.$.*.x O @ @ @ @ @ @ @ @ @ @ @ @ ",
"@ @ @ @ @ @ @ @ @ @ @ @ X @ @ r +.e.9 $ @ @ + @ O @ @ @ O + @ O $.&.$.4.< @ o @ @ @ @ @ @ @ @ @ @ @ ",
"@ @ @ @ @ @ @ @ @ + O @ @ O j [ #.#.r @ @ @ @ @ @ + @ + @ @ @ @ y 9.#.:.-.).@ @ @ @ @ @ O @ @ @ @ @ ",
"@ @ @ . @ @ @ @ @ @ O @ @ @ h 2.&.#.y @ + $ @ @ @ O + O @ @ @ @ m P #.$.O.P.@ @ @ @ @ @ o @ @ @ @ @ ",
"@ @ @ @ @ @ @ @ . @ @ @ @ @ ].$.&.o.u O @ O @ @ O @ + @ + @ @ @ @ * $.$.#.X.V @ @ @ @ @ @ @ @ @ @ @ ",
"@ @ @ @ @ @ @ @ + @ @ + @ O m.&.#.>.a @ @ @ @ @ @ @ + O @ @ @ @ + y #.&.#.:.i @ @ @ @ @ @ @ @ @ @ @ ",
"@ @ @ @ @ @ @ @ @ @ @ @ @ n %.o.;.@.(.3 @ O @ @ @ @ @ @ @ @ @ @ @ 4 #.$.%.p.e O @ @ @ @ @ @ @ @ @ @ ",
"@ @ @ @ @ @ @ @ @ @ @ @ + p o.%.;.` z 3 O @ @ @ @ @ @ @ @ @ @ @ @ 4 #.&.&.p.d @ @ @ @ @ @ @ @ @ @ @ ",
"@ @ @ @ @ @ @ @ @ @ @ @ O y $.$.$.&.q @ O @ @ @ @ @ @ @ @ @ @ @ @ @ &.$.#.F.a @ @ @ @ @ @ @ @ @ @ @ ",
"@ @ @ @ @ @ @ @ @ @ + O . y &.$.$.&.0 O @ o O @ @ @ @ @ @ @ @ @ @ @ #.&.&.v.k O @ @ @ O @ @ @ @ O @ ",
"@ @ @ @ @ @ @ @ @ @ @ @ O = $.$.$.8.U 4 O + @ @ @ @ @ @ @ @ @ @ @ @ &.$.#.8.K.; @ @ @ @ @ @ @ @ o @ ",
"@ @ @ @ @ @ @ @ X @ @ @ o 1 $.$.$.=.s.< @ @ O @ @ @ @ @ @ @ @ @ @ @ #.:.$.+.h.3 @ @ @ @ @ @ @ @ @ @ ",
"@ @ @ @ @ @ @ @ @ O @ @ O X j.3.*.+.=.v.@ @ @ @ @ @ @ @ @ @ @ @ @ @ $.$.#.$.f.Z @ @ @ @ @ @ @ @ @ @ ",
"@ @ @ @ @ @ @ @ @ @ @ @ O O j.4.*.+.$.4.@ + @ @ @ @ @ @ @ o @ @ @ @ #.$.$.$.M.A @ @ @ @ @ @ @ @ @ @ ",
"@ @ @ @ @ @ @ @ @ @ @ @ @ @ m R O.w.#.6.t @ @ @ @ @ @ @ @ @ @ @ @ E.&.&.$.&.s.3 @ @ @ @ @ @ @ @ @ @ ",
"@ @ @ @ @ @ @ @ O @ @ @ @ @ m R._ w.b.=.t @ @ @ @ @ @ @ @ @ + @ @ w #.#.$.$.I.; @ @ o @ @ @ @ @ @ @ ",
"@ @ @ @ @ @ @ @ @ @ @ @ + @ @ 6 %.#.&.$.Z.U.x + @ @ o @ - o f XXU.R &.&.$.=.> @ @ @ @ @ @ @ @ @ @ @ ",
"@ @ @ @ @ @ @ @ @ O @ @ @ @ o B q.#.X.&.e.u.* X @ @ @ o X o > E i.y.$.&.$.4.s @ @ @ @ @ @ @ @ @ @ @ ",
"@ @ @ @ @ @ @ @ @ @ @ + O @ @ @ O @ ! o.+.&.$.&.#.f.'.g.{ [ @ J [.*.#.X.O.L.@ O O @ @ @ @ @ O @ @ @ ",
"@ @ @ @ @ @ @ @ @ O @ @ . @ @ @ @ X  X,.$.&.&.&.$.z.n.l.x.D.- - d.+.&.&._ Q.o @ @ @ @ @ @ o @ @ @ @ ",
"@ @ @ @ @ @ @ @ @ @ o @ @ o @ + @ @ @ @ @ O F F O @ @ o @ @ O X u.O.7.b.i.5 @ @ @ @ @ @ @ @ @ @ @ @ ",
"@ @ @ @ . @ @ @ @ O @ @ @ @ @ @ @ @ @ O @ @ ; ; @ @ @ @ @ @ O O .X3.=.7.U 5 X O @ @ @ @ @ @ @ @ @ @ ",
"@ @ @ @ @ @ @ @ @ @ @ @ @ @ @ @ @ @ @ @ @ @ @ @ @ @ @ @ @ @ 5 T $.$.$.5.1 X @ @ @ @ @ o @ @ @ @ @ @ ",
"@ @ @ @ @ @ @ @ @ @ @ @ @ @ @ @ @ @ @ @ @ @ @ @ O @ @ @ @ + ; | $.&.#.z.5 @ @ @ @ @ @ @ @ @ @ @ @ @ ",
"@ @ @ @ @ . @ @ @ @ @ @ @ @ @ @ @ @ @ @ @ @ @ @ + . O @ @ - <.=.&.#.( = @ @ @ @ @ @ @ @ @ @ @ @ @ @ ",
"@ @ @ @ @ @ @ @ @ @ @ @ @ + . @ @ @ @ @ @ @ @ @ @ O + O @ @ @.=.=.#.j ; O @ @ @ @ @ @ @ @ @ @ O @ @ ",
"@ @ @ @ @ @ @ @ @ @ @ @ @ @ @ @ @ @ @ @ @ @ @ @ @ @ @ @ H ^ 4.4.j.R.@ @ @ @ @ @ @ @ @ @ @ @ @ @ @ @ ",
". @ @ @ @ @ @ @ @ @ @ @ @ @ @ @ @ @ @ @ @ @ @ @ @ @ @ @ p [ 4.=.y._.+ @ + @ @ @ @ @ @ @ @ @ @ @ @ @ ",
"@ @ @ @ @ @ @ @ @ @ @ @ @ @ @ @ @ @ @ @ @ @ @ @ O + @ : $.$.o.| , @ O @ @ X @ @ @ @ @ @ o @ @ @ @ @ ",
"@ @ @ @ @ @ @ @ @ @ @ @ @ @ @ @ @ @ @ @ @ @ @ @ @ @ @ = #.#.%.V.6 o @ @ @ @ @ @ O @ @ @ @ @ @ @ @ @ ",
"@ @ @ @ @ @ @ @ . @ @ @ @ @ @ @ @ + @ @ @ @ @ @ . $ 0.=.+.y.@ @ @ @ @ @ @ @ @ @ @ @ @ @ @ @ @ @ @ @ ",
"@ @ @ @ @ @ @ @ @ @ @ @ @ @ @ @ @ @ @ + @ @ @ O + $ #.#.x.|.@ + @ @ o @ @ @ @ @ @ @ o @ @ @ @ @ @ @ ",
"@ . @ @ @ @ @ @ @ @ @ @ @ @ @ @ @ @ @ @ @ @ + Z B.5.]   @ @ @ @ @ @ @ @ @ O @ @ @ @ @ @ @ @ @ @ @ @ ",
"@ @ @ @ @ @ @ @ @ @ @ @ @ @ @ @ @ O @ + O @ @ v 3.5.C.G @ @ @ @ @ @ @ @ @ @ @ @ @ @ @ @ @ @ @ @ @ @ ",
"@ @ @ @ @ @ @ @ @ @ @ @ @ @ . + @ 5 N H G.} E K.= @ @ O X O @ O @ @ @ @ @ X @ @ @ @ @ @ @ @ O @ @ @ ",
"@ @ @ @ . @ @ @ @ @ @ @ @ @ @ @ O ; > g L L V.^.1 @ @ O @ @ + @ @ @ @ @ @ O @ @ @ @ @ @ @ @ @ @ @ @ ",
"@ @ @ @ @ @ @ @ @ @ @ @ @ @ @ @ @ = @ + O O @ + @ + @ @ + @ @ + @ @ @ @ @ @ @ @ @ @ @ @ @ @ @ @ O o ",
"@ @ @ @ @ @ @ @ @ @ @ @ @ @ @ @ ; 5 - O @ @ @ @ @ @ @ @ @ @ @ O @ @ @ @ @ @ @ @ @ @ @ @ @ o @ @ @ @ ",
"@ @ @ @ @ @ @ @ + @ @ @ @ @ @ @ @ @ @ @ @ @ @ @ @ @ @ @ @ @ @ @ @ O @ o @ @ @ @ @ @ @ @ @ @ @ @ @ @ ",
"@ @ @ @ @ @ @ @ . @ @ @ @ @ @ @ @ @ @ @ @ @ @ @ @ @ @ . @ @ @ @ @ @ @ @ @ @ @ @ @ @ @ @ @ @ @ @ @ @ "
};
