/* XPM */
static char *result[] = {
/* columns rows colors chars-per-pixel */
"150 50 17 1 ",
"  c #59113C",
". c #7E0D2F",
"X c #720E33",
"o c #651037",
"O c #1A1952",
"+ c #27174E",
"@ c #331649",
"# c #401445",
"$ c #4C1340",
"% c #B0061D",
"& c #BC0518",
"* c #8A0B2A",
"= c #970926",
"- c #A30821",
"; c #D5020F",
": c #C90314",
"> c #E2000B",
/* pixels */
"OOOOOOOOOOOOOOOOOOOOOOOOOOOOOOOOOOOOOOOOOOOOOOOOOOOOOOOOOOOOOOOOOOOOOOOOOOOOOOOOOOOOOOOOOOOOOOOOOOOOOOOOOOOOOOOOOOOOOOOOOOOOOOOOOOOOOOOOOOOOOOOOOOOOOO",
"OOOOOOOOOOOOOOOOOOOOOOOOOOOOOOOOOOOOOOOOOOOOOOOOOOOOOOOOOOOOOOOOOOOOOOOOOOOOOOOOOOOOOOOOOOOOOOOOOOOOOOOOOOOOOOOOOOOOOOOOOOOOOOOOOOOOOOOOOOOOOOOOOOOOOO",
"OOOOOOOOOOOOOOOOOOOOOOOOOOOOOOOOOOOOOOOOOOOOOOOOOOOOOOOOOOOOOOOOOOOOOOOOOOOOOOOOOOOOOOOOOOOOOOOOOOOOOOOOOOOOOOOOOOOOOOOOOOOOOOOOOOOOOOOOOOOOOOOOOOOOOO",
"OOOOOOOOOOOOOOOOOOOOOOOOOOOOOOOOOOOOOOOOOOOOOOOOOOOOOOOOOOOOOOOOOOOOOOOOOOOOOOOOOOOOOOOOOOOOOOOOOOOOOOOOOOOOOOOOOOOOOOOOOOOOOOOOOOOOOOOOOOOOOOOOOOOOOO",
"OOOOOOOOOOOOOOOOOOOOOOOOOOOOOOOOOOOOOOOOOOOOOOOOOOOOOOOOOOOOOOOOOOOOOOOOOOOOOOOOOOOOOOOOOOOOOOOOOOOOOOOOOOOOOOOOOOOOOOOOOOOOOOOOOOOOOOOOOOOOOOOOOOOOOO",
"OOOOOOOOOOOOOOOOOOOOOOOOOOOOOOOOOOOOOOOOOOOOOOOOOOOOOOOOOOOOOOOOOOOOOOOOOOOOOOOOOOOOOOOOOOOOOOOOOOOOOOOOOOOOOOOOOOOOOOOOOOOOOOOOOOOOOOOOOOOOOOOOOOOOOO",
"OOOOOOOOOOOOOOOOOOOOOOOOOOOOOOOOOOOOOOOOOOOOOOOOOOOOOOOOOOOOOOOOOOOOOOOOOOOOOOOOOOOOOOOOOOOOOOOOOOOOOOOOOOOOOOOOOOOOOOOOOOOOOOOOOOOOOOOOOOOOOOOOOOOOOO",
"OOOOOOOOOOOOOOOOOOOOOOOOOOOOOOOOOOOOOOOOOOOOOOOOOOOOOOOOOOOOOOOOOOOOOOOOOOOOOOOOOOOOOOOOOOOOOOOOOOOOOOOOOOOOOOOOOOOOOOOOOOOOOOOOOOOOOOOOOOOOOOOOOOOOOO",
"OOOOOOOOOOOOOOOOOOOOOOOOOOOOOOOOOOOOOOOOOOOOOOOOOOOOOOOOOOOOOOOOOOOOOOOOOOOOOOOOOOOOOOOOOOOOOOOOOOOOOOOOOOOOOOOOOOOOOOOOOOOOOOOOOOOOOOOOOOOOOOOOOOOOOO",
"OOOOOOOOOOOOOOOOOOOOOOOOOOOOOOOOOOOOOOOOOOOOOOOOOOOOOOOOOOOOOOOOOOOOOOOOOOOOOOOOOOOOOOOOOOOOOOOOOOOOOOOOOOOOOOOOOOOOOOOOOOOOOOOOOOOOOOOOOOOOOOOOOOOOOO",
"OOOOOOOOOOOOOOOOOOOOOOOOOOOOOOOOOOOOOOOOOOOOOOOOOOOOOOOOOOOOOOOOOOOOOOOOOOOOOOOOOOOOOOOOOOOOOOOOOOOOOOOOOOOOOOOOOOOOOOOOOOOOOOOOOOOOOOOOOOOOOOOOOOOOOO",
"OOOOOOOOOOOOOOOOOOOOOOOOOOOOOOOOOOOOOOOOOOOOOOOOOOOOOOOOOOOOOOOOOOOOOOOOOOOOOOOOOOOOOOOOOOOOOOOOOOOOOOOOOOOOOOOOOOOOOOOOOOOOOOOOOOOOOOOOOOOOOOOOOOOOOO",
"OOOOOOOOOOOOOOOOOOOOOOOOOOOOOOOOOOOOOOOOOOOOOOOOOOOOOOOOOOOOOOOOOOOOOOOOOOOOOOOOOOOOOOOOOOOOOOOOOOOOOOOOOOOOOOOOOOOOOOO+$$@OOOOOOOOOOOOOOOOOOOOOOOOOOO",
"OOOOOOOOOOOO.>>>>>#OOOOX>>>>>$OOOOOOOOOOOOOOOOOO@ OOOOOOOOOOOOOOOOOOOOOOOOOOOOOOOOOOOOOOOOOOOOOO$>>>OOOOOOOOOOOOOOOOOO*>>>>-OOO$#OOOOOOOOOOOOOOOOOOOOO",
"OOOOOOOOOOOO.>>>>>XOOOO->>>>>$OOOOOOOOOOOOOOOO+.>.OOOOOOOOOOOOOOOOOOOOOOOOOOOOOOOOOOOOOOOOOOOOOO$>>>OOOOOOOOOOOOOOOOOo>>>>>.O@->$OOOOOOOOOOOOOOOOOOOOO",
"OOOOOOOOOOOO.>>>>>-OOOO;>>>>>$OOOOOOOOOOOOOOOO->>.OOOOOOOOOOOOOOOOOOOOOOOOOOOOOOOOOOOOOOOOOOOOOO$>>>OOOOOOOOOOOOOOOOO->>:$$$O;>>$OOOOOOOOOOOOOOOOOOOOO",
"OOOOOOOOOOOO.>>;>>;OOO#>>;>>>$OOOOOOOOOOOOOOOO%>>.OOOOOOOOOOOOOOOOOOOOOOOOOOOOOOOOOOOOOOOOOOOOOO$>>>OOOOOOOOOOOOOOOOO%>>.OOOO>>>$OOOOOOOOOOOOOOOOOOOOO",
"OOOOOOOOOOOO.>>%;>>@OOo>>->>>$OOOOO@X..#OOOO+$&>>=$$OOOO+o.. OOOOOO@$$#Oo.$OOO#X..X#OOOOOOOOOOOO$>>>OOOOOO#..X@OOOO@$&>>=$$@$>>>X$#OO#$$@OOOOOOOOOOOOO",
"OOOOOOOOOOOO.>>%->>oOO=>>X>>>$OOO+->>>>>&#OO$>>>>>>>OOO.>>>>>; OOOO.>>%*>>>#+%>>>>>>%+OOOOOOOOOO$>>>OOOO#&>>>>>-+OO.>>>>>>>.>>>>>>%OO%>>.OOOOOOOOOOOOO",
"OOOOOOOOOOOO.>>%.>>=OO:>>$>>>$OOO&>>>>>>>;@O$>>>>>>>OO*>>>>>>>> OOO.>>;>>>:O%>>>>>>>>&OOOOOOOOOO$>>>OOO@;>>>>>>>&OO.>>>>>>>.>>>>>>%OO%>>.OOOOOOOOOOOOO",
"OOOOOOOOOOOO.>>%$>>:O@>>>O>>>$OO.>>;$O@&>>-O+$&>>=$$O$>>>XO+=>>;OOO.>>>>&:=#>>> OOX>>>oOOOOOOOOO$>>>OOO%>>&@O$;>>XO@$&>>=$$@$>>>X$#OO%>>.OOOOOOOOOOOOO",
"OOOOOOOOOOOO.>>%O>>>@o>>%O>>>$OO:>>oOOO+>>>@OO%>>.OOO=>>=OOOO&>>oOO.>>>XOO@$>>>oOOOX$#OOOOOOOOOO$>>>OO@>>>@OOO >>:OOO%>>.OOOO>>>$OOOOOOOOOOOOOOOOOOOOO",
"OOOOOOOOOOOO.>>%O&>> *>>*O>>>$O@>>>+OOOO%>> OO%>>.OOO:>> OOOO.>>*OO.>>>OOOO+>>>>>%.#OOOOOOOOOOOO$>>>OOo>>&OOOOO>>>+OO%>>.OOOO>>>$OOOOOOOOOOOOOOOOOOOOO",
"OOOOOOOOOOOO.>>%O*>>*&>> O>>>$O$>>>>>>>>>>>.OO%>>.OOO>>>>>>>>>>>%OO.>>&OOOOOo>>>>>>>:XOOOOOOOOOO$>>>OO.>>>>>>>>>>>$OO%>>.OOOO>>>$OOOOOOOOOOOOOOOOOOOOO",
"OOOOOOOOOOOO.>>%O >>&>>>+O>>>$O$>>>>>>>>>>>.OO%>>.OOO>>>>>>>>>>>%OO.>>%OOOOOO$=;>>>>>>.OOOOOOOOO$>>>OO.>>>>>>>>>>>$OO%>>.OOOO>>>$OOOOOOOOOOOOOOOOOOOOO",
"OOOOOOOOOOOO.>>%O@>>>>>:OO>>>$O#>>>OOOOOOOOOOO%>>.OOO;>>$OOOOOOOOOO.>>%OOOOOOOOO$.->>>;OOOOOOOOO$>>>OOX>>%OOOOOOOOOOO%>>.OOOO>>>$OOOOOOOOOOOOOOOOOOOOO",
"OOOOOOOOOOOO.>>%OO:>>>>=OO>>>$OO;>>oOOO@-.o+OO%>>.OOO->>=OOOO-.X@OO.>>%OOOOo%&=OOOO >>>OOOOOOOOO$>>>OO#>>>@OOO =. OOO%>>.OOOO>>>$OOOOOOOOOOOOOOOOOOOOO",
"OOOOOOOOOOOO.>>%OO=>>>>oOO>>>$OO.>>; O@%>>;OOO%>>-O@+$>>>X++*>>>#OO.>>%OOOOo>>>X+O@=>>&OOOOOOOOO$>>>OOO%>>&#O$:>>-OOO%>>.OOOO>>>XO#OO%>>.OOOOOOOOOOOOO",
"OOOOOOOOOOOO.>>%OOX>>>>#OO>>>$OO+&>>>>>>>> OOO*>>>>>$O=>>>>>>>>*OOO.>>%OOOOO%>>>>>>>>> OOOOOOOOO$>>>OOO#;>>>>>>>;@OOO%>>.OOOO&>>>>>OO%>>.OOOOOOOOOOOOO",
"OOOOOOOOOOOO.>>%OO#>>>;OOO>>>$OOO+%>>>>>; OOOO@;>>>>$OO*>>>>>>.OOOO.>>%OOOOO+*>>>>>>: OOOOOOOOOO$>>>OOOO#:>>>>>&#OOOO%>>.OOOO >>>>>OO%>>.OOOOOOOOOOOOO",
"OOOOOOOOOOOO@$$#OOO$$$#OOO$$$+OOOOO#X.. OOOOOOO+o..$OOOO@o..o+OOOOO@$$#OOOOOOO@ ...$OOOOOOOOOOOO+$$$OOOOOO$...#OOOOOO#$$@OOOOO@X.X#OO#$$@OOOOOOOOOOOOO",
"OOOOOOOOOOOOOOOOOOOOOOOOOOOOOOOOOOOOOOOOOOOOOOOOOOOOOOOOOOOOOOOOOOOOOOOOOOOOOOOOOOOOOOOOOOOOOOOOOOOOOOOOOOOOOOOOOOOOOOOOOOOOOOOOOOOOOOOOOOOOOOOOOOOOOO",
"OOOOOOOOOOOOOOOOOOOOOOOOOOOOOOOOOOOOOOOOOOOOOOOOOOOOOOOOOOOOOOOOOOOOOOOOOOOOOOOOOOOOOOOOOOOOOOOOOOOOOOOOOOOOOOOOOOOOOOOOOOOOOOOOOOOOOOOOOOOOOOOOOOOOOO",
"OOOOOOOOOOOOOOOOOOOOOOOOOOOOOOOOOOOOOOOOOOOOOOOOOOOOOOOOOOOOOOOOOOOOOOOOOOOOOOOOOOOOOOOOOOOOOOOOOOOOOOOOOOOOOOOOOOOOOOOOOOOOOOOOOOOOOOOOOOOOOOOOOOOOOO",
"OOOOOOOOOOOOOOOOOOOOOOOOOOOOOOOOOOOOOOOOOOOOOOOOOOOOOOOOOOOOOOOOOOOOOOOOOOOOOOOOOOOOOOOOOOOOOOOOOOOOOOOOOOOOOOOOOOOOOOOOOOOOOOOOOOOOOOOOOOOOOOOOOOOOOO",
"OOOOOOOOOOOOOOOOOOOOOOOOOOOOOOOOOOOOOOOOOOOOOOOOOOOOOOOOOOOOOOOOOOOOOOOOOOOOOOOOOOOOOOOOOOOOOOOOOOOOOOOOOOOOOOOOOOOOOOOOOOOOOOOOOOOOOOOOOOOOOOOOOOOOOO",
"OOOOOOOOOOOOOOOOOOOOOOOOOOOOOOOOOOOOOOOOOOOOOOOOOOOOOOOOOOOOOOOOOOOOOOOOOOOOOOOOOOOOOOOOOOOOOOOOOOOOOOOOOOOOOOOOOOOOOOOOOOOOOOOOOOOOOOOOOOOOOOOOOOOOOO",
"OOOOOOOOOOOOOOOOOOOOOOOOOOOOOOOOOOOOOOOOOOOOOOOOOOOOOOOOOOOOOOOOOOOOOOOOOOOOOOOOOOOOOOOOOOOOOOOOOOOOOOOOOOOOOOOOOOOOOOOOOOOOOOOOOOOOOOOOOOOOOOOOOOOOOO",
"OOOOOOOOOOOOOOOOOOOOOOOOOOOOOOOOOOOOOOOOOOOOOOOOOOOOOOOOOOOOOOOOOOOOOOOOOOOOOOOOOOOOOOOOOOOOOOOOOOOOOOOOOOOOOOOOOOOOOOOOOOOOOOOOOOOOOOOOOOOOOOOOOOOOOO",
"OOOOOOOOOOOOOOOOOOOOOOOOOOOOOOOOOOOOOOOOOOOOOOOOOOOOOOOOOOOOOOOOOOOOOOOOOOOOOOOOOOOOOOOOOOOOOOOOOOOOOOOOOOOOOOOOOOOOOOOOOOOOOOOOOOOOOOOOOOOOOOOOOOOOOO",
"OOOOOOOOOOOOOOOOOOOOOOOOOOOOOOOOOOOOOOOOOOOOOOOOOOOOOOOOOOOOOOOOOOOOOOOOOOOOOOOOOOOOOOOOOOOOOOOOOOOOOOOOOOOOOOOOOOOOOOOOOOOOOOOOOOOOOOOOOOOOOOOOOOOOOO",
"OOOOOOOOOOOOOOOOOOOOOOOOOOOOOOOOOOOOOOOOOOOOOOOOOOOOOOOOOOOOOOOOOOOOOOOOOOOOOOOOOOOOOOOOOOOOOOOOOOOOOOOOOOOOOOOOOOOOOOOOOOOOOOOOOOOOOOOOOOOOOOOOOOOOOO",
"OOOOOOOOOOOOOOOOOOOOOOOOOOOOOOOOOOOOOOOOOOOOOOOOOOOOOOOOOOOOOOOOOOOOOOOOOOOOOOOOOOOOOOOOOOOOOOOOOOOOOOOOOOOOOOOOOOOOOOOOOOOOOOOOOOOOOOOOOOOOOOOOOOOOOO",
"OOOOOOOOOOOOOOOOOOOOOOOOOOOOOOOOOOOOOOOOOOOOOOOOOOOOOOOOOOOOOOOOOOOOOOOOOOOOOOOOOOOOOOOOOOOOOOOOOOOOOOOOOOOOOOOOOOOOOOOOOOOOOOOOOOOOOOOOOOOOOOOOOOOOOO",
"OOOOOOOOOOOOOOOOOOOOOOOOOOOOOOOOOOOOOOOOOOOOOOOOOOOOOOOOOOOOOOOOOOOOOOOOOOOOOOOOOOOOOOOOOOOOOOOOOOOOOOOOOOOOOOOOOOOOOOOOOOOOOOOOOOOOOOOOOOOOOOOOOOOOOO",
"OOOOOOOOOOOOOOOOOOOOOOOOOOOOOOOOOOOOOOOOOOOOOOOOOOOOOOOOOOOOOOOOOOOOOOOOOOOOOOOOOOOOOOOOOOOOOOOOOOOOOOOOOOOOOOOOOOOOOOOOOOOOOOOOOOOOOOOOOOOOOOOOOOOOOO",
"OOOOOOOOOOOOOOOOOOOOOOOOOOOOOOOOOOOOOOOOOOOOOOOOOOOOOOOOOOOOOOOOOOOOOOOOOOOOOOOOOOOOOOOOOOOOOOOOOOOOOOOOOOOOOOOOOOOOOOOOOOOOOOOOOOOOOOOOOOOOOOOOOOOOOO",
"OOOOOOOOOOOOOOOOOOOOOOOOOOOOOOOOOOOOOOOOOOOOOOOOOOOOOOOOOOOOOOOOOOOOOOOOOOOOOOOOOOOOOOOOOOOOOOOOOOOOOOOOOOOOOOOOOOOOOOOOOOOOOOOOOOOOOOOOOOOOOOOOOOOOOO",
"OOOOOOOOOOOOOOOOOOOOOOOOOOOOOOOOOOOOOOOOOOOOOOOOOOOOOOOOOOOOOOOOOOOOOOOOOOOOOOOOOOOOOOOOOOOOOOOOOOOOOOOOOOOOOOOOOOOOOOOOOOOOOOOOOOOOOOOOOOOOOOOOOOOOOO",
"OOOOOOOOOOOOOOOOOOOOOOOOOOOOOOOOOOOOOOOOOOOOOOOOOOOOOOOOOOOOOOOOOOOOOOOOOOOOOOOOOOOOOOOOOOOOOOOOOOOOOOOOOOOOOOOOOOOOOOOOOOOOOOOOOOOOOOOOOOOOOOOOOOOOOO"
};
