/* XPM */
static char *_76_ccf44c9c12155cadc1a9db70ee056e0549ea0c3bee916155c79e103c65528325[] = {
/* columns rows colors chars-per-pixel */
"50 50 195 2 ",
"   c #171A4F",
".  c #19194F",
"X  c #1B1752",
"o  c #171A51",
"O  c #1A1952",
"+  c #1D1C58",
"@  c #221E56",
"#  c #281F56",
"$  c #221E59",
"%  c #36344A",
"&  c #26245B",
"*  c #2F235B",
"=  c #242254",
"-  c #322052",
";  c #32245E",
":  c #3B265C",
">  c #332A5E",
",  c #382F5C",
"<  c #3A2252",
"1  c #3C3650",
"2  c #322663",
"3  c #392765",
"4  c #372861",
"5  c #3F3463",
"6  c #401D55",
"7  c #791D49",
"8  c #6B1E54",
"9  c #681549",
"0  c #552B43",
"q  c #5F314D",
"w  c #5B3A45",
"e  c #482558",
"r  c #542456",
"t  c #582859",
"y  c #59305C",
"u  c #6B2A45",
"i  c #6A234D",
"p  c #7B304F",
"a  c #743749",
"s  c #682457",
"d  c #6C2A5B",
"f  c #612559",
"g  c #4C2C64",
"h  c #472D69",
"j  c #4B2C6A",
"k  c #432460",
"l  c #512B64",
"z  c #4F306B",
"x  c #493366",
"c  c #513065",
"v  c #5B336D",
"b  c #5F3A6D",
"n  c #5F3672",
"m  c #6E2F66",
"M  c #652C61",
"N  c #63346C",
"B  c #6B336A",
"V  c #61396D",
"C  c #77386D",
"Z  c #7B3267",
"A  c #673E76",
"S  c #6A3D76",
"D  c #753A70",
"F  c #6C4351",
"G  c #BE2213",
"H  c #961728",
"J  c #9D1424",
"K  c #9B1A37",
"L  c #891637",
"P  c #A80E26",
"I  c #AF0A2A",
"U  c #B50C29",
"Y  c #A61F2E",
"T  c #A61A37",
"R  c #A71739",
"E  c #BC1A3F",
"W  c #9F2321",
"Q  c #97232C",
"!  c #AC2836",
"~  c #B32C3B",
"^  c #A73B31",
"/  c #CB0A05",
"(  c #DB0100",
")  c #DE0903",
"_  c #D60B0F",
"`  c #DF0909",
"'  c #D71400",
"]  c #CE0A16",
"[  c #C50A1F",
"{  c #CE0E19",
"}  c #C60718",
"|  c #DA0F13",
" . c #D30F19",
".. c #C0161F",
"X. c #D4131D",
"o. c #D81118",
"O. c #DE1213",
"+. c #E40300",
"@. c #ED0203",
"#. c #EC0B01",
"$. c #E7060A",
"%. c #ED0509",
"&. c #E50C0D",
"*. c #ED0A0D",
"=. c #F40301",
"-. c #FD0301",
";. c #F30A01",
":. c #FC0A00",
">. c #F4040A",
",. c #FE020B",
"<. c #F2080C",
"1. c #FC090F",
"2. c #E61801",
"3. c #F91002",
"4. c #FB1900",
"5. c #F51702",
"6. c #E40C13",
"7. c #EB061B",
"8. c #E50419",
"9. c #FC0115",
"0. c #FF0916",
"q. c #FE001C",
"w. c #F40517",
"e. c #E2121D",
"r. c #EB1613",
"t. c #F41214",
"y. c #FD141A",
"u. c #FD1B1D",
"i. c #CC2305",
"p. c #FF260A",
"a. c #F82D0D",
"s. c #FF2011",
"d. c #FE3019",
"f. c #C70A27",
"g. c #DD0224",
"h. c #D30D22",
"j. c #D00A2D",
"k. c #C70136",
"l. c #D80F3D",
"z. c #D60738",
"x. c #C91C38",
"c. c #C11935",
"v. c #D7182A",
"b. c #E60621",
"n. c #E20C23",
"m. c #EB0E20",
"M. c #E90421",
"N. c #FA0123",
"B. c #F40227",
"V. c #E61920",
"C. c #E21622",
"Z. c #F31127",
"A. c #C3233F",
"S. c #F93328",
"D. c #880E4B",
"F. c #991445",
"G. c #9B164F",
"H. c #961C43",
"J. c #842249",
"K. c #94214D",
"L. c #9B244D",
"P. c #952C4D",
"I. c #8D2F54",
"U. c #9A2F53",
"Y. c #952C55",
"T. c #8F305A",
"R. c #83305C",
"E. c #90335F",
"W. c #A42747",
"Q. c #A72E4F",
"!. c #B12846",
"~. c #B7224B",
"^. c #A02251",
"/. c #AE3652",
"(. c #9E1763",
"). c #BA166C",
"_. c #9D2A65",
"`. c #893A67",
"'. c #88376F",
"]. c #913870",
"[. c #A73568",
"{. c #A43466",
"}. c #AF2773",
"|. c #B72071",
" X c #D70743",
".X c #D70C45",
"XX c #C41F49",
"oX c #D1104F",
"OX c #C32442",
"+X c #DC2745",
"@X c #CE2755",
"#X c #CE3A50",
"$X c #8D416F",
"%X c #904E6A",
"&X c #A24A70",
/* pixels */
"O O O O O O O O O O O O O O O O O O O O O O o O O O O X o + o X O O O O O O O O O O O O O O O O O O ",
"O O O O O O O O O O O O O O O O O O   O . X O X O O X o O X O o O O O O O O O O O O O O O O O O O O ",
"O O O O O O O O O O O O O X O O O X O O O     h V b h & O O o X O O O O O O O O O O O O O O O O O O ",
"O O O O O O O O O O O O O O O O O X o O O O o - Y.U.].& O o O X O O O O o O O O O O O O O O O O O O ",
"O O O O O O O O O O O . O O O O O o O c s.;.J 7 [.{.~.L ' a.O O O X O O X O O O O O O O O O O O O O ",
"O O O O O O O O O O O O O O O O X O X 6 +.:.#X&XS A $X/.2./ O O O O O o O O O O O O O O O O O O O O ",
"O O O O O O O O X O O O O O X O O y ,.-.k O O O O O O O g U =.,.N O O O X O X O O O O O O O O O O O ",
". O O O X O O O O O O O O O o o O e =.9.h o X O O O X O v +X-.-.t O O O O O O O O O O O O O O O O O ",
"O O O O O O O O O O O O O O O x 9.,.o.w O O O O O O X O O O $.*.6.v.o O O o O O O O O O O O O O O O ",
"O O O O O O X O O O O O O O . e 9.9...F O O O O O O O O O X y.<.*.j.O O O O O O O O O O O O O O O O ",
"O O O O O O O O X O O O O o M I :.=.t . O O o O O o O o O O m n.-.-.G.2 O O X O O O X O O O O O O O ",
"O O O O O O O O O . O O O O f h.=.;.y O O O O O O + O O X O C f.:.-.k.2 O X X O O O O O O O . O O O ",
"X O O O O O O O O O o O X e -.,.>.} X O O O O . O O O O . O O 0 -.-.=.oXo O O O O O O O O O O O O O ",
"O O O O O O O O O O O o O : @.,.1.] X X O O O O O O O O O . X q -.-.,.z.O O O O O O O O O O O O O O ",
"O O O O O O O X O O O + 3 G.=.-.#.i.O O O O O O O O O O O O O + N.,.:.@.a O O O X . O O O O O X O O ",
"O O O O O O O . O O O . 4 .X-.:.#.i.O O O O O O O O O O O O O O B.,.=.;.^ = . O O O O O O O O O O O ",
"O O O O O O O O o O O O XX>.-.-.&.W.O O O O O X O O O O O O O O -.-.-.#.] z X O O O O O O O O O O O ",
"O O O O O O O O X O O O E >.-.-.*.Q.O O o O o O O O O O O O O O -.-.:.#.X.j O O O O O O O O O O O O ",
"O O O O O O O O O O O O z.@.-.=.&.T.O O O O O O O O O O O O O O <.=.-.-.e.d X + O O O O O O O O O O ",
"O O O O O O O O O O O O j.@.:.=.` E.O O o O O O O O O O O O O O y.=.:.-.V.f O X O O O O O O O O O O ",
"O O O O O O O O O O O O B.-.:.#.| B O . O O O O O O O O O O O X A.@.:.-.u.L.O O O O O O O O O O O O ",
"O O O O O O O O o O O O N.-.:.@.| C O O o O O o O O O O O O O O A.*.-.-.t.H.O O O O O O O O O O O O ",
"O O O O O O O O O O O 4 9.-.:.#.X.v X O O O O O O O O O O O O O K.*.-.-.=.f.O O O O O O O O O O O O ",
"O O O O O O O O O O O * 9.-.:.#.] b O O X O O O O O O O O O O O K.t.-.-.+.f.O O O O O O O O O O O O ",
"O O O . O O O O O O O 2 q.-.:.#.] v O O O O O O O O O O O O O O L.$.-.-.=.[ O O X O O O O O O O O O ",
"X O O O O O O O O O O * q.-.=.;.X.n O O X o O O O O O O O O O O L.$.-.-.=.f.X O O O O O O O O O O O ",
"O O O O O O O O O O X $ q.-.-.=.| B O O O O O O O O O O O O O O x.:.-.-.%.K o O O O O O O O O O O O ",
"O O O O O O O O X o o $ N.-.-.:.O.N O O O o O O O X O O O O O O c.>.-.-.%.T o O O O O O O O O X O O ",
"O O O O O O X O X O O + g.-.-.-.r.`.O O o O O O O O O O O O O O ,.-.-.-.6.s O O O O O O O O O . O O ",
". O O O O O O O O O o O g.-.-.-.&.R.O O O   O O O O O O O O X O ,.-.-.-.6.d O O O O O O O O O O O O ",
"O O O O O O O O X O O O f.0.-.-.( P.. O X O O O O O O O O O O O -.-.-.=.o.l O O O O . X O O O O O O ",
"O O O O O O O O O O O O f.0.-.-.&.U.O O O O O O O O O O O O O O -.-.-.=.V.l O O O O O O O O X O O O ",
"O O O X O O O O X X + O (.Z.+.4.7.).O O O O O o O O O o X O O $ N.=.;.@.XXO + o X O O O O X O O O O ",
"O O O O O O O O . O X O }.8.#.5.7.).O O O O O O O O O o O O O = w.>.:.=.J.O o O O O O O O O O O O O ",
"O O O O O O O O . O O O = T :.-.;.r.O X . O O O O . O O O O X l -.-.-.9.O O O O O O O O O O O O O O ",
"O O O O O O O O X O . X $ i -.-.;.) O O o O O O O O O O O O O e -.-.-.,.O O O X O O O O O O O O O O ",
"O O O O O O O O O O O O O X z.>.3.+.5 O O O X O O O . O O O 5 W -.=.b.8 o o O o O O O O O O O O O O ",
"O O O O O O O O O O O . O O  X,.:.@.> O o O O O O O O O X O , G -.-.f.Z X X O X O O O X O O O O O O ",
"O O O O O . O O O O O O X o ; .X,.,.u & O O O O O O O O O O I.7.-.9.= O O O + O O O O O O O O O O O ",
"O O O O O X O O O O O X O o 4 F.-.1.Q & O O O O O O O O O O J.7.=.0.= O O X X o O O O O O O O O O O ",
"O O O O O O O O O O O X O O O O m.8.7.@XX X O X O O O X O 1 :.-.f.* O O O O O O O O O O O O O X O O ",
"O O O O O O O O O O O o O O O O +Xn.f.l.O O O O O O o O X % -.-.!., o O O O O O O O O O O O O O O O ",
"O O O O O O O O O O O O O O O O . O =.:.S.%XX O O O X h p.-.Y = . O . O O O X O O O O O O O O O O O ",
"O O O O O O O O O O O O O O O O O X d.:./ u O o O O o : -.=.p > O O O O O O O X O O O O O O O O O O ",
"O O O O O O O O O O O O O O X O O X O O ; 9 R x.~ ! H.D.< . O O O o O O O O O O O O O O O O O O O O ",
"O O X . O O O O O O O O O O O O O O O O > `.~.P H K ^._.x O X O O O O O O O O O O X . O O O O O O O ",
"O O O O O O O O O O O O O O O O X O X O . X O O O X X X O O O O O O O O O O O O O O O O O O O O O O ",
"O O O O O O O O O O O O O O O O O O O X O X O O X O . O O O O O O O O O O O O O O O O O O O O O O O ",
"O X O O O O O O O O O O O O X . O O O X O O O O O O O O O O O O O O O O O O O O O O O O O O O O O O ",
"O O O O O O O O O O O O O O O O O O O O O O O O O O O O O O O O O O O O O O O O O O O O O O O O O O "
};
