/* XPM */
static char *_7110_1024874a20ab57458350e4616a8c2f32f40345bf83f340c64a5d08c60aa83b99[] = {
/* columns rows colors chars-per-pixel */
"50 50 204 2 ",
"   c #171A4F",
".  c #19194F",
"X  c #1A1A4E",
"o  c #1C194E",
"O  c #1B1752",
"+  c #1C1751",
"@  c #1F1750",
"#  c #1C1652",
"$  c #1B1754",
"%  c #171952",
"&  c #171954",
"*  c #191851",
"=  c #181951",
"-  c #1B1851",
";  c #191A50",
":  c #181B50",
">  c #1A1A50",
",  c #1A1B51",
"<  c #1B1B51",
"1  c #191852",
"2  c #181952",
"3  c #1A1952",
"4  c #1A1953",
"5  c #191A52",
"6  c #181B52",
"7  c #181A53",
"8  c #191A53",
"9  c #1B1A53",
"0  c #1A1B53",
"q  c #1C1950",
"w  c #1D1A51",
"e  c #1C1952",
"r  c #1C1853",
"t  c #1E1953",
"y  c #1D1A53",
"u  c #191C51",
"i  c #181854",
"p  c #191854",
"a  c #191955",
"s  c #1A1955",
"d  c #1B1A54",
"f  c #1A1B54",
"g  c #1B1A56",
"h  c #1D1954",
"j  c #1C1855",
"k  c #1C1B54",
"l  c #1E1D56",
"z  c #1F1E57",
"x  c #201B55",
"c  c #211E55",
"v  c #3D1F53",
"b  c #37254F",
"n  c #2E2051",
"m  c #202159",
"M  c #252259",
"N  c #272258",
"B  c #24215A",
"V  c #232558",
"C  c #28255A",
"Z  c #3D2152",
"A  c #3F2258",
"S  c #3B2063",
"D  c #3F3162",
"F  c #551F43",
"G  c #561E4B",
"H  c #581F4A",
"J  c #4F1C55",
"K  c #601D46",
"L  c #6B1D47",
"P  c #611E49",
"I  c #621D4A",
"U  c #641C4C",
"Y  c #452348",
"T  c #472349",
"R  c #47224B",
"E  c #45254E",
"W  c #5A2343",
"Q  c #5A2245",
"!  c #562248",
"~  c #5A2448",
"^  c #592C49",
"/  c #452459",
"(  c #4F245A",
")  c #43325E",
"_  c #622C4E",
"`  c #633951",
"'  c #472A64",
"]  c #4F2D6A",
"[  c #552D62",
"{  c #483666",
"}  c #4E3E62",
"|  c #543668",
" . c #52356D",
".. c #442F70",
"X. c #AA1D13",
"o. c #AB1D13",
"O. c #B2161A",
"+. c #B5161B",
"@. c #B6141F",
"#. c #99270D",
"$. c #9C250D",
"%. c #B4251F",
"&. c #8E1838",
"*. c #8E183A",
"=. c #B51521",
"-. c #832438",
";. c #98293A",
":. c #AB213B",
">. c #D90013",
",. c #DA0F13",
"<. c #D4001B",
"1. c #ED0503",
"2. c #EB0704",
"3. c #EE0405",
"4. c #EE0407",
"5. c #E30E00",
"6. c #E70D01",
"7. c #E50D02",
"8. c #EB0800",
"9. c #EA0C01",
"0. c #E6050D",
"q. c #E8050E",
"w. c #F20201",
"e. c #F30002",
"r. c #F50100",
"t. c #F70000",
"y. c #F60100",
"u. c #F40002",
"i. c #F50400",
"p. c #F90001",
"a. c #F90003",
"s. c #FB0102",
"d. c #FB0303",
"f. c #FD0000",
"g. c #FD0100",
"h. c #FC0001",
"j. c #FE0000",
"k. c #FF0101",
"l. c #FC0300",
"z. c #FE0200",
"x. c #FF0200",
"c. c #FE0300",
"v. c #FF0300",
"b. c #FD0002",
"n. c #FE0002",
"m. c #FE0003",
"M. c #FF0302",
"N. c #F80500",
"B. c #FB0400",
"V. c #FD0400",
"C. c #FC0500",
"Z. c #FF0400",
"A. c #FF0500",
"S. c #FF0401",
"D. c #FD0601",
"F. c #FE0700",
"G. c #FF0700",
"H. c #FE0702",
"J. c #FA0105",
"K. c #F80205",
"L. c #FC0204",
"P. c #FD0900",
"I. c #FD0901",
"U. c #FF0801",
"Y. c #FF0A00",
"T. c #FF0E00",
"R. c #FE0D06",
"E. c #F60109",
"W. c #F6000F",
"Q. c #FC000D",
"!. c #FD030D",
"~. c #FC050E",
"^. c #E20113",
"/. c #E40210",
"(. c #EF0415",
"). c #EB0A1C",
"_. c #F10313",
"`. c #F80010",
"'. c #F80012",
"]. c #F80113",
"[. c #FA0115",
"{. c #FD0014",
"}. c #FE001F",
"|. c #F10E1F",
" X c #CD1723",
".X c #C50430",
"XX c #C60730",
"oX c #C30930",
"OX c #D2093D",
"+X c #C81A31",
"@X c #FD0327",
"#X c #FE0525",
"$X c #EF0236",
"%X c #E7063E",
"&X c #E61630",
"*X c #EF2734",
"=X c #891045",
"-X c #931046",
";X c #BA3D5F",
":X c #DB2744",
">X c #CC375D",
",X c #A04254",
"<X c #AB4553",
"1X c #924277",
/* pixels */
"3 3 3 3 3 3 3 3 3 3 3 3 3 3 3 3 3   2 > O 1 5 5 3 = 3 * 9 3 y p 3 3 3 3 3 3 3 3 3 3 3 3 3 3 3 3 3 3 ",
"3 3 3 3 3 3 3 3 3 3 3 3 3 3 3 3 j 9 * O a 4 4 # - 0 j 8 4 3 = u 3 3 3 3 3 3 3 3 3 3 3 3 3 3 3 3 3 3 ",
"3 3 3 3 3 3 3 3 3 3 3 3 3 3 3 3 5 e 0 3 > . 6 O 3 i = 3 + 3 1 3 3 3 3 3 3 3 3 3 3 3 3 3 3 3 3 3 3 3 ",
"3 3 3 3 3 3 3 3 3 3 3 3 3 3 3 3 5 # 4 5 1 3 > d . f ; . 8 4 ; e 3 3 3 3 3 3 3 3 3 3 3 3 3 3 3 3 3 3 ",
"3 3 3 3 3 3 3 3 3 3 3 3 3 3 3 3 = 4 s 3 2 d 2 3 4 N >X:X_ V 5 r 3 3 3 3 3 3 3 3 3 3 3 3 3 3 3 3 3 3 ",
"3 3 3 3 3 3 3 3 3 3 3 3 3 3 3 3 p 5 = 4 > - 8 r 7 B &X<.F C e = 3 3 3 3 3 3 3 3 3 3 3 3 3 3 3 3 3 3 ",
"3 3 3 3 3 3 3 3 3 3 3 3 3 3 3 3 3 * 3 * 8 ..;X*X~.f.y.y.R 5 r o 3 3 3 3 3 3 3 3 3 3 3 3 3 3 3 3 3 3 ",
"3 3 3 3 3 3 3 3 3 3 3 3 3 3 3 3 4 3 3 5 4 S +X/.Q.p.U.I.Y 3 5 8 3 3 3 3 3 3 3 3 3 3 3 3 3 3 3 3 3 3 ",
"3 3 3 3 3 3 3 3 3 3 3 3 3 3 3 3 4 e ] ( n b %.,._.W.c.v.I z ; 4 3 3 3 3 3 3 3 3 3 3 3 3 3 3 3 3 3 3 ",
"3 3 3 3 3 3 3 3 3 3 3 3 3 3 3 3 & * ' [ D } <X X(.E.B.D.U x : e 3 3 3 3 3 3 3 3 3 3 3 3 3 3 3 3 3 3 ",
"3 3 3 3 3 3 3 3 3 3 3 3 3 3 3 3 @ 5 O e 2 > 2 ) J.b.z.S.G h 3 4 3 3 3 3 3 3 3 3 3 3 3 3 3 3 3 3 3 3 ",
"3 3 3 3 3 3 3 3 3 3 3 3 3 3 3 3 = 5 e 4 p 4 O { K.g.M.C.H = 3 ; 3 3 3 3 3 3 3 3 3 3 3 3 3 3 3 3 3 3 ",
"3 3 3 3 3 3 3 3 3 3 3 3 3 3 3 3 = 8 8 = q 5 w 5 &.q.h.b.~ x d 2 3 3 3 3 3 3 3 3 3 3 3 3 3 3 3 3 3 3 ",
"3 3 3 3 3 3 3 3 3 3 3 3 3 3 3 3 4 3 3 e 4 : 3 r *.0.g.j.;.l i 3 3 3 3 3 3 3 3 3 3 3 3 3 3 3 3 3 3 3 ",
"3 3 3 3 3 3 3 3 3 3 3 3 3 3 3 3 d * 5 3 4 > 8 5 $.5.g.m.:.M 1 $ 3 3 3 3 3 3 3 3 3 3 3 3 3 3 3 3 3 3 ",
"3 3 3 3 3 3 3 3 3 3 3 3 3 3 3 3 > 8 8 3 e 3 r 5 #.7.f.n.L B 4 ; 3 3 3 3 3 3 3 3 3 3 3 3 3 3 3 3 3 3 ",
"3 3 3 3 3 3 3 3 3 3 3 3 3 3 3 3 3 3 3 3 3 3 3 3 -X1.D.F.! 3 3 4 3 3 3 3 3 3 3 3 3 3 3 3 3 3 3 3 3 3 ",
"3 3 3 3 3 3 3 3 3 3 3 3 3 3 3 3 3 3 3 3 3 3 3 3 -X1.D.F.! 3 3 4 3 3 3 3 3 3 3 3 3 3 3 3 3 3 3 3 3 3 ",
"3 3 3 3 3 3 3 3 3 3 3 3 3 3 3 3 3 3 3 3 3 3 3 3 -X1.D.F.! 3 3 4 3 3 3 3 3 3 3 3 3 3 3 3 3 3 3 3 3 3 ",
"3 3 3 3 3 3 3 3 3 3 3 3 3 3 3 3 3 3 3 3 3 3 3 3 -X1.D.F.! 3 3 4 3 3 3 3 3 3 3 3 3 3 3 3 3 3 3 3 3 3 ",
"3 3 3 3 3 3 3 3 3 3 3 3 3 3 3 3 3 3 3 3 3 3 3 3 -X1.D.F.! 3 3 4 3 3 3 3 3 3 3 3 3 3 3 3 3 3 3 3 3 3 ",
"3 3 3 3 3 3 3 3 3 3 3 3 3 3 3 3 3 3 3 3 3 3 3 3 -X1.D.F.! 3 3 4 3 3 3 3 3 3 3 3 3 3 3 3 3 3 3 3 3 3 ",
"3 3 3 3 3 3 3 3 3 3 3 3 3 3 3 3 3 3 3 3 3 3 3 3 -X1.D.F.! 3 3 4 3 3 3 3 3 3 3 3 3 3 3 3 3 3 3 3 3 3 ",
"3 3 3 3 3 3 3 3 3 3 3 3 3 3 3 3 3 3 3 3 3 3 3 3 -X1.D.F.! 3 3 4 3 3 3 3 3 3 3 3 3 3 3 3 3 3 3 3 3 3 ",
"3 3 3 3 3 3 3 3 3 3 3 3 3 3 3 3 3 3 3 3 3 3 3 3 -X1.D.F.! 3 3 4 3 3 3 3 3 3 3 3 3 3 3 3 3 3 3 3 3 3 ",
"3 3 3 3 3 3 3 3 3 3 3 3 3 3 3 3 3 3 3 3 3 3 3 3 -X1.D.F.! 3 3 4 3 3 3 3 3 3 3 3 3 3 3 3 3 3 3 3 3 3 ",
"3 3 3 3 3 3 3 3 3 3 3 3 3 3 3 3 3 3 3 3 3 3 3 3 -X1.D.F.! 3 3 4 3 3 3 3 3 3 3 3 3 3 3 3 3 3 3 3 3 3 ",
"3 3 3 3 3 3 3 3 3 3 3 3 3 3 3 3 3 3 3 3 3 3 3 3 -X1.D.F.! 3 3 4 3 3 3 3 3 3 3 3 3 3 3 3 3 3 3 3 3 3 ",
"3 3 3 3 3 3 3 3 3 3 3 3 3 3 3 3 3 3 3 3 3 3 3 3 -X1.D.F.! 3 3 4 3 3 3 3 3 3 3 3 3 3 3 3 3 3 3 3 3 3 ",
"3 3 3 3 3 3 3 3 3 3 3 3 3 3 3 3 3 3 3 3 3 3 3 3 -X1.D.F.! 3 3 4 3 3 3 3 3 3 3 3 3 3 3 3 3 3 3 3 3 3 ",
"3 3 3 3 3 3 3 3 3 3 3 3 3 3 3 3 3 3 3 3 3 3 3 3 -X1.D.F.! 3 3 4 3 3 3 3 3 3 3 3 3 3 3 3 3 3 3 3 3 3 ",
"3 3 3 3 3 3 3 3 3 3 3 3 3 3 3 3 3 3 3 3 3 3 3 3 -X1.D.F.! 3 3 4 3 3 3 3 3 3 3 3 3 3 3 3 3 3 3 3 3 3 ",
"3 3 3 3 3 3 3 3 3 3 3 3 3 3 3 3 3 3 3 3 3 3 3 3 X.9.C.G.P * 3 3 3 3 3 3 3 3 3 3 3 3 3 3 3 3 3 3 3 3 ",
"3 3 3 3 3 3 3 3 3 3 3 3 3 3 3 3 3 3 3 3 3 3 3 3 o.6.D.H.K f 3 r 3 3 3 3 3 3 3 3 3 3 3 3 3 3 3 3 3 3 ",
"3 3 3 3 3 3 3 3 3 3 3 3 3 3 3 3 3 3 3 3 3 3 3 3 O.2.j.x.J ; 3 8 3 3 3 3 3 3 3 3 3 3 3 3 3 3 3 3 3 3 ",
"3 3 3 3 3 3 3 3 3 3 3 3 3 3 3 3 3 3 3 3 3 3 3 3 +.8.z.k.J r 3 8 3 3 3 3 3 3 3 3 3 3 3 3 3 3 3 3 3 3 ",
"3 3 3 3 3 3 3 3 3 3 3 3 3 3 3 3 3 3 3 3 3 3 3 3 @.4.n.j.T 5 < r 3 3 3 3 3 3 3 3 3 3 3 3 3 3 3 3 3 3 ",
"3 3 3 3 3 3 3 3 3 3 3 3 3 3 3 3 3 3 3 3 3 3 3 3 =.3.s.j.E 3 4 = 3 3 3 3 3 3 3 3 3 3 3 3 3 3 3 3 3 3 ",
"3 3 3 3 3 3 3 3 3 3 3 3 3 3 3 3 3 3 3 3 3 3 3 3 XXr.l.A.W c 3 3 3 3 3 3 3 3 3 3 3 3 3 3 3 3 3 3 3 3 ",
"3 3 3 3 3 3 3 3 3 3 3 3 3 3 3 3 3 3 3 3 3 3 3 3 oXw.d.A.Q m 1 3 3 3 3 3 3 3 3 3 3 3 3 3 3 3 3 3 3 3 ",
"3 3 3 3 3 3 3 3 3 3 3 3 3 3 3 3 4 1 = * 6 1 3 3 .X#X{.'.v e 3 = 3 3 3 3 3 3 3 3 3 3 3 3 3 3 3 3 3 3 ",
"3 3 3 3 3 3 3 3 3 3 3 3 3 3 3 3 2 3 3 # 2 4 5 3 OX@X`.]./ * 8 4 3 3 3 3 3 3 3 3 3 3 3 3 3 3 3 3 3 3 ",
"3 3 3 3 3 3 3 3 3 3 3 3 3 3 3 3 , O r 5 = r 8 l >.u.G.T.` r p > 3 3 3 3 3 3 3 3 3 3 3 3 3 3 3 3 3 3 ",
"3 3 3 3 3 3 3 3 3 3 3 3 3 3 3 3 3 3 3 5 r 4 4 k ).i.P.t.^ % 5 3 3 3 3 3 3 3 3 3 3 3 3 3 3 3 3 3 3 3 ",
"3 3 3 3 3 3 3 3 3 3 3 3 3 3 3 3 3 g 2 X  .1X%X[.!.x.Y.e.N.|.,X| 3 3 3 3 3 3 3 3 3 3 3 3 3 3 3 3 3 3 ",
"3 3 3 3 3 3 3 3 3 3 3 3 3 3 3 3 t - 4 4 A =X$X}.a.L.Z.V.R.^.-.Z 3 3 3 3 3 3 3 3 3 3 3 3 3 3 3 3 3 3 ",
"3 3 3 3 3 3 3 3 3 3 3 3 3 3 3 3 ; . > 1 9 > = r X = f 3 > 4 ; O 3 3 3 3 3 3 3 3 3 3 3 3 3 3 3 3 3 3 ",
"3 3 3 3 3 3 3 3 3 3 3 3 3 3 3 3 8 r 4 3 3 4 4 5 8 3 r . 3 * s . 3 3 3 3 3 3 3 3 3 3 3 3 3 3 3 3 3 3 ",
"3 3 3 3 3 3 3 3 3 3 3 3 3 3 3 3 3 3 3 3 3 3 3 3 3 3 3 3 3 3 3 3 3 3 3 3 3 3 3 3 3 3 3 3 3 3 3 3 3 3 ",
"3 3 3 3 3 3 3 3 3 3 3 3 3 3 3 3 3 3 3 3 3 3 3 3 3 3 3 3 3 3 3 3 3 3 3 3 3 3 3 3 3 3 3 3 3 3 3 3 3 3 "
};
