/* XPM */
static char *_0456_6a44d5b6513da49b9750b0df7d3c82f798a854da47646b6340d92a8c1bcf7156[] = {
/* columns rows colors chars-per-pixel */
"50 50 176 2 ",
"   c #691F3A",
".  c #662432",
"X  c #1C174F",
"o  c #171A4F",
"O  c #19194F",
"+  c #1B1752",
"@  c #171A52",
"#  c #1A1952",
"$  c #211E56",
"%  c #2C1E54",
"&  c #211F59",
"*  c #242255",
"=  c #2B2357",
"-  c #202358",
";  c #2A245B",
":  c #352256",
">  c #3C2051",
",  c #30255D",
"<  c #3C275E",
"1  c #322960",
"2  c #3D2D66",
"3  c #392564",
"4  c #3A3263",
"5  c #441D52",
"6  c #501C5E",
"7  c #641D55",
"8  c #761F52",
"9  c #71185A",
"0  c #7A1746",
"q  c #4E204E",
"w  c #57244A",
"e  c #432351",
"r  c #4C2653",
"t  c #4B2E5A",
"y  c #522351",
"u  c #622050",
"i  c #692558",
"p  c #7A2350",
"a  c #673050",
"s  c #422F64",
"d  c #4C2866",
"f  c #412F6B",
"g  c #452564",
"h  c #403168",
"j  c #4D336A",
"k  c #57316C",
"l  c #5C3D69",
"z  c #692966",
"x  c #722F62",
"c  c #623965",
"v  c #6D3C69",
"b  c #66336C",
"n  c #783B6A",
"m  c #642F73",
"M  c #623B70",
"N  c #6C445E",
"B  c #70416D",
"V  c #7F4263",
"C  c #B80C0C",
"Z  c #BC1D08",
"A  c #AE191F",
"S  c #B0161E",
"D  c #B81417",
"F  c #9C210F",
"G  c #97291A",
"H  c #BA201E",
"J  c #8F072F",
"K  c #8C1F3E",
"L  c #B01824",
"P  c #B11928",
"I  c #B81428",
"U  c #BE0E3C",
"Y  c #A71F35",
"T  c #A81E35",
"R  c #B51335",
"E  c #9F2027",
"W  c #86312C",
"Q  c #982B30",
"!  c #9F203B",
"~  c #AB212E",
"^  c #BD2E28",
"/  c #BE2833",
"(  c #CF0F0E",
")  c #D40402",
"_  c #D80401",
"`  c #CE1200",
"'  c #C91E02",
"]  c #DC1201",
"[  c #DA1901",
"{  c #DC100F",
"}  c #D41803",
"|  c #D80E17",
" . c #D3111C",
".. c #ED0201",
"X. c #E10C0A",
"o. c #EF0E0C",
"O. c #E30505",
"+. c #F40201",
"@. c #FC0301",
"#. c #F70B00",
"$. c #FD0A01",
"%. c #FD020B",
"&. c #FF090A",
"*. c #EA1100",
"=. c #EE150B",
"-. c #FE1300",
";. c #E50616",
":. c #E4041E",
">. c #F60016",
",. c #FE0113",
"<. c #FD011C",
"1. c #FF091B",
"2. c #FF1E1F",
"3. c #CC2012",
"4. c #C82914",
"5. c #C0211E",
"6. c #C62C12",
"7. c #C9250A",
"8. c #F82715",
"9. c #C50729",
"0. c #C30B27",
"q. c #DB0720",
"w. c #CA0534",
"e. c #CC0B38",
"r. c #D80331",
"t. c #D6023F",
"y. c #CF1133",
"u. c #E50021",
"i. c #E90923",
"p. c #FE0023",
"a. c #FF0028",
"s. c #F40A28",
"d. c #EB0233",
"f. c #E30832",
"g. c #E1153A",
"h. c #D72B2B",
"j. c #D93D27",
"k. c #C9283A",
"l. c #F92227",
"z. c #E63A2C",
"x. c #E7253D",
"c. c #C84F3E",
"v. c #9B1F41",
"b. c #9A1D55",
"n. c #AB1C43",
"m. c #A41E4A",
"M. c #B81E42",
"N. c #A11B58",
"B. c #8E2B48",
"V. c #992649",
"C. c #873247",
"Z. c #8E2B5A",
"A. c #972E57",
"S. c #9C2358",
"D. c #8F3C58",
"F. c #AE2249",
"G. c #A12945",
"H. c #BC204F",
"J. c #BF305C",
"K. c #A63A4A",
"L. c #9C1967",
"P. c #923A6A",
"I. c #8F3477",
"U. c #B12763",
"Y. c #A62D7C",
"T. c #CC0141",
"R. c #CF0F48",
"E. c #DC044F",
"W. c #CF1956",
"Q. c #C93E5B",
"!. c #CA2756",
"~. c #8F4266",
"^. c #80436F",
"/. c #934167",
"(. c #A8416C",
"). c #D8454D",
/* pixels */
"# # # # # # # # # # # # # # # # X # # @ # # # + # # @ # + # # # # # # # + # # # # # # # # # # # # # ",
"# # # # # # # # # # # # # # # # X # # # # # # # # # # # # # # # + # # # @ @ + # # # # # # # # # # # ",
"# # # # # # # # # # # # # # # # @ @ # # # # # # # # @ # # # @ # # # # # @ + # @ # # # # # + # # # # ",
"# # # # # # # # # # # # # # # # # @ # # # @ # # # # # # # # + # # # # + + @ # # # # # # # # # # # # ",
"# # # # # # # # # # + # # # # # # $ # # + + + s N P.n n /.~.n v c l b m # # @ X # # # # # # # # # # ",
"# # # # # # # # # # # X # # # # # # # # # # # : . Q V.m.Y Y m.S.V.B.N.6 # # # # # # # # # # # # # # ",
"# # # # # # # # # # # # # # # # # # # # # # 8...$.$.@.@.@.@.@.@.$.$.@.d.< # # # # # # # # # # # # # ",
"# # # # + # # # # # # # # # # # # # # # # # =.@.@.$.@.@.@.@.@.@.@.$.@.d.< # # # # # # # # # # # # # ",
"# # # # # # # # # # # # # # # # + @ # # & 8 @.$. .| <.<.;.X.X.] ` ' D 7 + # # X # # # # # # # # # # ",
"# # # # # # # # # # # # # # # # # # # @ & M.+.-.I I p.p.| { { ] } 7.G.i # + @ # # # # # # # + # # # ",
"# # # # # # # # # # # # # # # # # + # # s.s.= @ X @ X @ # @ # # # # # # @ + + @ # X # # # # # # # # ",
"# # # # # # # # # # # # # # # # # @ + + u.i.1 @ X # @ # # # # + + # @ # # $ # X # # # # # # # # # # ",
"# # # # # X # # # # # # X # # # # # ; a A k.X O @ + O # # # # @ # # # # + @ # # # # # # # # # # # # ",
"# + # # # # # # # # # # # # # # @ # ; w L ).@ # # # # # # + # # # # + # # + # @ # # # # # # # # # # ",
"# # # # # # # # # + # # # # # # # + 8.O.# + # # # @ $ # # @ # @ # # # # # # @ + # # # # # # # # # # ",
"# # # # # # # # # # # # # # # # + + o.O.# # @ # # # # # # + @ # # # @ # # # X # # # # # # # # # # # ",
"# # # # # # # # # # # # # # # # # r p.,.( ^ A.k f # + # + X # # # # # # # # # # # # # # # # # # + # ",
"# # # # # # # # # # # # # # # # @ e ,.%.) 3.R S.% # o O # + @ # O # # + @ + # # # # # # # # # # # # ",
"# # # # # # # # # # # # # # X # l.@.@.$.#.-.@.+.-.@.@.1.(.2 # @ # # # # # # # + # # # # # # # # # # ",
"# # # # # # # # # # # # # # # # %.+.$.@.+.$.$.$.+.+.$.%.R % # # # # @ # # # # # # # # # # # # # # # ",
"# + # # # # # # # # # # # # # # 5 v.G.~ ` [ [ *.a.<.D 6.@.@.=.K.1 + # $ # # + # # # # # # # # # # # ",
"# # # # # X # # # # # # # # # # M ^.n D.z.8.[ _ p.p.H j.$.$._ I = + @ # + # # # # # # # # # # # # # ",
"# # # # X + # # # # # # # # # # # # # # # # # # = M.;.@.@.@.@.p.0.x # # # X # # # # # # # # # # # # ",
"# # # # $ # # # # # # # # # # # # # # # @ # @ # h P.x...+.@.&.<.q.u # # @ @ # # # # # # # # # # # # ",
"# # # # # # # # # # # # # # # # # # # # # # # # # # # # 9 u.$.$.$.@.U z + # # & # # # # # # # # # # ",
"# # # # # # # # # # # # # # # # # # # # # # # # # + @ # I.g.+.$.@.+.f.z # # # # # # + # # # # # # # ",
"# # # # # # # # # # # # # # # # # # # # # # # # @ # # # + O L.u.$.@.@.<.# # # # # # # # # # # # # # ",
"# X # # # # # # # # # # # # # # # # # # # # # # + # # + + $ Y.r.@.$.$.>.# @ @ # # # # # # # # # # # ",
"# # # # # # # # # # # # # # # # # # # # # # # # # # # @ # + # @ 9.@.$.+.p * # # # # # # # # # # X # ",
"# # + # # # # # # # # # # # # # # # # # # # # # # @ # @ # # + # y.+.@.$.n.& # # # # # # # # # # # # ",
"# # # # # # # # # # # # # # # # # # # # # # # # # # + + + # o # ; E @.$.L = # # # # # X # # # # # # ",
"# # # # # # # # # # # X # # # # # # # # # # # # # # # # @ o X + ,   $.$.P ; X # # # # # # # # # # # ",
"# # # X # # + # # # # # # # # # # # # # # # # # # # # # # # # # # r +.$.G ; @ @ # # # # # # # # # # ",
"# # # # # # # # X # # # # # # # # # # # # # # # # # # # # # + # X r @.@.. , @ # # # # # # # # # # # ",
"# # # # # # # # # # # # # # # # # # # # # # + # # # # # # # # # X = $.@.e @ # @ # # # # # # # # # # ",
"# # # # # # # # # # # # # # # # # # # # # # # # # # # # # # # # # * -.+.t + # # # # # # # # # # # # ",
"# # # # # # # # # # # # # # # # # # # # # # # # # # # # # # # # # y $.+.+ + + # # # # # # # # # # # ",
"# # # # # # # # # # # # # # # # # # # # # # # # X # # # # # # # # q +.$.# # # @ # # # # # # # # # # ",
"# # # # # # # # # # # # # # # # # # # # # # # # # # # # # # # # !.w.R.g # # # # # # # # # # # # # # ",
"# # # # # # # # # # # # # # # # # # # # # # # # # # # # # # # # w.e.b.j # # # # # # # # # # # # # # ",
"# # # # # # # # X # + # # # 4 l v n # # # @ # # # # @ # # # k Z.J F.@ # + @ # + # # # # # # # # # # ",
"# # # # # # # # # @ # # @ @ * C.K y @ # + # # # # + # + # + d 0 m.J.$ # # # @ # # # # # # # # # # # ",
"# # # # # # # # # # @ + # # t.<.$.@...k.j @ # X + @ # - Q.h.Z F @ # # # # # # # # # # # # # # # # # ",
"# # # # # # # # + # # o # # E.<.+.+.o. .> @ # $ # # o * R C 4.c.# # # # # @ # # # # # # # # # # # # ",
"# # # # # # # # # # # + # O 2 t.&.$.$.$.-.-.$.@.-.%.%.d.: @ # # # # # # X # # @ # # # # $ # # # # # ",
"# # # # # # # # # # # # # # 2 U.+.$.$.-.$.#.$.-.+.@.1.W.s + # # @ X # @ # # @ + X # # # X + # # # # ",
"# # # # # # # # # # $ # @ X @ @ # + @ + + # + # @ # + # # # + # # # # # # @ # X # # # # # # # + # # ",
"# # # # # # # # # # @ # + # + # + @ + # # @ & + # # @ + # # # # # # # # # # # # # # # # # # # # # # ",
"# # # # # # # # # # # # # # # # + # # # # # # # # # # # # # # # # # # # # # # # # # # # # # # # # # ",
"# # # # # # # # # # # # # # # # # # # # # # # # # # # # # # # # # # # # # # # # # # # # # # # # # + "
};
