/* XPM */
static char *f049dcadf0494c278a6efcd319fa2062za9CPVue7ob8ITfS[] = {
/* columns rows colors chars-per-pixel */
"100 100 2 1 ",
"  c black",
". c #22B14C",
/* pixels */
"                                                                               .....................",
"                                                                               .....................",
"                                                                               .....................",
"                                                                                . ..................",
"                                                                                . ..................",
"                                                                                . ..................",
"                                                                                  ..................",
"                                                                                  ..................",
"                                                                                  ..................",
"                                                                                  ..................",
"                                                                                  ..................",
"                                                                                  ..................",
"                                                                                  ..................",
"                                                                                  ..................",
"                                                                                  ..................",
"                                                                                  ..................",
"                                                                                  ..................",
"                                                                                  ..................",
"                                                                                  ..................",
"                                                                                  ..................",
"                                                                                  ..................",
"                                                                                  ..................",
"                                                                                  ..................",
"                                                                                  ..................",
"                                                                                  ..................",
"                                                                                  ..................",
"                                                                                  ..................",
"                                                                                  ..................",
"                                                                                  ..................",
"                                                                                  ..................",
".                                                                                 ..................",
".                                                                                 ..................",
"....                                                                              ..................",
"....                                                                             ...................",
".....                                                                            ...................",
".....                                                                            ...................",
".....                                                                            ...................",
".....                                                                            ...................",
"......                                                                           ...................",
"......                                                                           ...................",
".......                                                                          ...................",
".......                                                                         ....................",
".......                                                                         ....................",
"........                                                                        ....................",
"........                                                                        ....................",
"........                                                                        ....................",
"........                                                                        ....................",
".........                                                                       ....................",
".........                                                                      .....................",
".........                                                                      .....................",
".........                                                                      .....................",
"..........                                                                     .....................",
"..........                                                                     .....................",
"..........                                                                     .....................",
"...........                                                                   ......................",
"...........                                                                   ......................",
"............                                                                  ......................",
"............                                                                ........................",
"............                                                                ........................",
".............                                                               ........................",
"..............                                                              ........................",
"..............                                                              ........................",
"..............                                                              ........................",
".............                                                               ........................",
".............                                                               ........................",
".............                                                                .......................",
"............                                                                  ......................",
"...........                                                                   ......................",
"..........                                                                    ......................",
"..........                                                                     .....................",
"..........                                                                      ....................",
"..........                                                                        ..................",
"........                                                                           .................",
"........                                                                            ................",
"........                                                                               .............",
".......                                                                                .............",
"......                                                                                      ........",
"......                                                                                              ",
"......                                                                                              ",
"......                                                                                              ",
".....                                                                                               ",
".....                                                                                               ",
".....                                                                                               ",
".....                                                                                               ",
"....                                                                                                ",
"....                                                                                                ",
"...                                                                                                 ",
"..                                                                                                  ",
"..                                                                                                  ",
".                                                                                                   ",
".                                                                                                   ",
".                                                                                                   ",
".                                                                                                   ",
".                                                                                                   ",
".                                                                                                   ",
".                                                                                                   ",
".                                                                                                   ",
".                                                                                                   ",
".                                                                                                   ",
"....                                                                                                "
};
